%TF.GenerationSoftware,KiCad,Pcbnew,8.0.1*%
%TF.CreationDate,2024-04-16T22:47:58+08:00*%
%TF.ProjectId,bitaxeUltra,62697461-7865-4556-9c74-72612e6b6963,rev?*%
%TF.SameCoordinates,Original*%
%TF.FileFunction,Legend,Bot*%
%TF.FilePolarity,Positive*%
%FSLAX46Y46*%
G04 Gerber Fmt 4.6, Leading zero omitted, Abs format (unit mm)*
G04 Created by KiCad (PCBNEW 8.0.1) date 2024-04-16 22:47:58*
%MOMM*%
%LPD*%
G01*
G04 APERTURE LIST*
G04 Aperture macros list*
%AMRoundRect*
0 Rectangle with rounded corners*
0 $1 Rounding radius*
0 $2 $3 $4 $5 $6 $7 $8 $9 X,Y pos of 4 corners*
0 Add a 4 corners polygon primitive as box body*
4,1,4,$2,$3,$4,$5,$6,$7,$8,$9,$2,$3,0*
0 Add four circle primitives for the rounded corners*
1,1,$1+$1,$2,$3*
1,1,$1+$1,$4,$5*
1,1,$1+$1,$6,$7*
1,1,$1+$1,$8,$9*
0 Add four rect primitives between the rounded corners*
20,1,$1+$1,$2,$3,$4,$5,0*
20,1,$1+$1,$4,$5,$6,$7,0*
20,1,$1+$1,$6,$7,$8,$9,0*
20,1,$1+$1,$8,$9,$2,$3,0*%
G04 Aperture macros list end*
%ADD10C,0.150000*%
%ADD11C,0.250000*%
%ADD12C,0.300000*%
%ADD13C,0.120000*%
%ADD14C,0.000000*%
%ADD15C,0.050000*%
%ADD16C,0.227485*%
%ADD17C,0.152400*%
%ADD18C,0.310000*%
%ADD19C,3.000000*%
%ADD20C,0.800000*%
%ADD21C,6.000000*%
%ADD22C,0.400000*%
%ADD23C,1.295400*%
%ADD24C,1.574800*%
%ADD25R,1.900000X1.000000*%
%ADD26C,2.000000*%
%ADD27R,1.700000X1.700000*%
%ADD28O,1.700000X1.700000*%
%ADD29C,0.650000*%
%ADD30R,1.150000X0.600000*%
%ADD31R,1.150000X0.300000*%
%ADD32O,1.800000X1.000000*%
%ADD33O,2.100000X1.000000*%
%ADD34R,0.900000X1.500000*%
%ADD35R,1.500000X0.900000*%
%ADD36R,0.900000X0.900000*%
%ADD37R,0.792000X0.221000*%
%ADD38R,4.277000X1.810000*%
%ADD39R,4.277000X4.530000*%
%ADD40RoundRect,0.250000X-0.550000X1.500000X-0.550000X-1.500000X0.550000X-1.500000X0.550000X1.500000X0*%
%ADD41C,1.600000*%
%ADD42C,1.800000*%
%ADD43RoundRect,0.250000X0.750000X-0.750000X0.750000X0.750000X-0.750000X0.750000X-0.750000X-0.750000X0*%
%ADD44R,0.508000X1.524000*%
%ADD45RoundRect,0.250000X-0.750000X0.600000X-0.750000X-0.600000X0.750000X-0.600000X0.750000X0.600000X0*%
%ADD46O,2.000000X1.700000*%
G04 APERTURE END LIST*
D10*
X85450000Y-95700000D02*
X125430000Y-95700000D01*
X125430000Y-135690000D01*
X85450000Y-135690000D01*
X85450000Y-95700000D01*
X117502319Y-140152046D02*
X117026128Y-139818713D01*
X117502319Y-139580618D02*
X116502319Y-139580618D01*
X116502319Y-139580618D02*
X116502319Y-139961570D01*
X116502319Y-139961570D02*
X116549938Y-140056808D01*
X116549938Y-140056808D02*
X116597557Y-140104427D01*
X116597557Y-140104427D02*
X116692795Y-140152046D01*
X116692795Y-140152046D02*
X116835652Y-140152046D01*
X116835652Y-140152046D02*
X116930890Y-140104427D01*
X116930890Y-140104427D02*
X116978509Y-140056808D01*
X116978509Y-140056808D02*
X117026128Y-139961570D01*
X117026128Y-139961570D02*
X117026128Y-139580618D01*
X117454700Y-140532999D02*
X117502319Y-140675856D01*
X117502319Y-140675856D02*
X117502319Y-140913951D01*
X117502319Y-140913951D02*
X117454700Y-141009189D01*
X117454700Y-141009189D02*
X117407080Y-141056808D01*
X117407080Y-141056808D02*
X117311842Y-141104427D01*
X117311842Y-141104427D02*
X117216604Y-141104427D01*
X117216604Y-141104427D02*
X117121366Y-141056808D01*
X117121366Y-141056808D02*
X117073747Y-141009189D01*
X117073747Y-141009189D02*
X117026128Y-140913951D01*
X117026128Y-140913951D02*
X116978509Y-140723475D01*
X116978509Y-140723475D02*
X116930890Y-140628237D01*
X116930890Y-140628237D02*
X116883271Y-140580618D01*
X116883271Y-140580618D02*
X116788033Y-140532999D01*
X116788033Y-140532999D02*
X116692795Y-140532999D01*
X116692795Y-140532999D02*
X116597557Y-140580618D01*
X116597557Y-140580618D02*
X116549938Y-140628237D01*
X116549938Y-140628237D02*
X116502319Y-140723475D01*
X116502319Y-140723475D02*
X116502319Y-140961570D01*
X116502319Y-140961570D02*
X116549938Y-141104427D01*
X116502319Y-141390142D02*
X116502319Y-141961570D01*
X117502319Y-141675856D02*
X116502319Y-141675856D01*
X91663819Y-138827523D02*
X91663819Y-138351333D01*
X91663819Y-138351333D02*
X92140009Y-138303714D01*
X92140009Y-138303714D02*
X92092390Y-138351333D01*
X92092390Y-138351333D02*
X92044771Y-138446571D01*
X92044771Y-138446571D02*
X92044771Y-138684666D01*
X92044771Y-138684666D02*
X92092390Y-138779904D01*
X92092390Y-138779904D02*
X92140009Y-138827523D01*
X92140009Y-138827523D02*
X92235247Y-138875142D01*
X92235247Y-138875142D02*
X92473342Y-138875142D01*
X92473342Y-138875142D02*
X92568580Y-138827523D01*
X92568580Y-138827523D02*
X92616200Y-138779904D01*
X92616200Y-138779904D02*
X92663819Y-138684666D01*
X92663819Y-138684666D02*
X92663819Y-138446571D01*
X92663819Y-138446571D02*
X92616200Y-138351333D01*
X92616200Y-138351333D02*
X92568580Y-138303714D01*
X91663819Y-139160857D02*
X92663819Y-139494190D01*
X92663819Y-139494190D02*
X91663819Y-139827523D01*
X109904819Y-140056809D02*
X109904819Y-139485381D01*
X109904819Y-139771095D02*
X108904819Y-139771095D01*
X108904819Y-139771095D02*
X109047676Y-139675857D01*
X109047676Y-139675857D02*
X109142914Y-139580619D01*
X109142914Y-139580619D02*
X109190533Y-139485381D01*
X108904819Y-140342524D02*
X109904819Y-140675857D01*
X109904819Y-140675857D02*
X108904819Y-141009190D01*
X109333390Y-141485381D02*
X109285771Y-141390143D01*
X109285771Y-141390143D02*
X109238152Y-141342524D01*
X109238152Y-141342524D02*
X109142914Y-141294905D01*
X109142914Y-141294905D02*
X109095295Y-141294905D01*
X109095295Y-141294905D02*
X109000057Y-141342524D01*
X109000057Y-141342524D02*
X108952438Y-141390143D01*
X108952438Y-141390143D02*
X108904819Y-141485381D01*
X108904819Y-141485381D02*
X108904819Y-141675857D01*
X108904819Y-141675857D02*
X108952438Y-141771095D01*
X108952438Y-141771095D02*
X109000057Y-141818714D01*
X109000057Y-141818714D02*
X109095295Y-141866333D01*
X109095295Y-141866333D02*
X109142914Y-141866333D01*
X109142914Y-141866333D02*
X109238152Y-141818714D01*
X109238152Y-141818714D02*
X109285771Y-141771095D01*
X109285771Y-141771095D02*
X109333390Y-141675857D01*
X109333390Y-141675857D02*
X109333390Y-141485381D01*
X109333390Y-141485381D02*
X109381009Y-141390143D01*
X109381009Y-141390143D02*
X109428628Y-141342524D01*
X109428628Y-141342524D02*
X109523866Y-141294905D01*
X109523866Y-141294905D02*
X109714342Y-141294905D01*
X109714342Y-141294905D02*
X109809580Y-141342524D01*
X109809580Y-141342524D02*
X109857200Y-141390143D01*
X109857200Y-141390143D02*
X109904819Y-141485381D01*
X109904819Y-141485381D02*
X109904819Y-141675857D01*
X109904819Y-141675857D02*
X109857200Y-141771095D01*
X109857200Y-141771095D02*
X109809580Y-141818714D01*
X109809580Y-141818714D02*
X109714342Y-141866333D01*
X109714342Y-141866333D02*
X109523866Y-141866333D01*
X109523866Y-141866333D02*
X109428628Y-141818714D01*
X109428628Y-141818714D02*
X109381009Y-141771095D01*
X109381009Y-141771095D02*
X109333390Y-141675857D01*
X106026190Y-110517200D02*
X106883332Y-111802914D01*
X104978570Y-110660057D02*
X104930951Y-110612438D01*
X104930951Y-110612438D02*
X104835713Y-110564819D01*
X104835713Y-110564819D02*
X104597618Y-110564819D01*
X104597618Y-110564819D02*
X104502380Y-110612438D01*
X104502380Y-110612438D02*
X104454761Y-110660057D01*
X104454761Y-110660057D02*
X104407142Y-110755295D01*
X104407142Y-110755295D02*
X104407142Y-110850533D01*
X104407142Y-110850533D02*
X104454761Y-110993390D01*
X104454761Y-110993390D02*
X105026189Y-111564819D01*
X105026189Y-111564819D02*
X104407142Y-111564819D01*
X103454761Y-111564819D02*
X104026189Y-111564819D01*
X103740475Y-111564819D02*
X103740475Y-110564819D01*
X103740475Y-110564819D02*
X103835713Y-110707676D01*
X103835713Y-110707676D02*
X103930951Y-110802914D01*
X103930951Y-110802914D02*
X104026189Y-110850533D01*
X103026189Y-111564819D02*
X103026189Y-110564819D01*
X103026189Y-110564819D02*
X102692856Y-111279104D01*
X102692856Y-111279104D02*
X102359523Y-110564819D01*
X102359523Y-110564819D02*
X102359523Y-111564819D01*
D11*
X108279523Y-110919857D02*
X108089047Y-110824619D01*
X108089047Y-110824619D02*
X107898571Y-110919857D01*
X107898571Y-110919857D02*
X107803333Y-111110333D01*
X107803333Y-111110333D02*
X107898571Y-111300809D01*
X107898571Y-111300809D02*
X108089047Y-111396047D01*
X108089047Y-111396047D02*
X108279523Y-111300809D01*
X108279523Y-111300809D02*
X108660475Y-110919857D01*
X108660475Y-110919857D02*
X108850952Y-110824619D01*
X108850952Y-110824619D02*
X109041428Y-110919857D01*
X109041428Y-110919857D02*
X109136666Y-111110333D01*
X109136666Y-111110333D02*
X109041428Y-111300809D01*
X109041428Y-111300809D02*
X108850952Y-111396047D01*
X108850952Y-111396047D02*
X108660475Y-111300809D01*
X108660475Y-111300809D02*
X108279523Y-110919857D01*
D12*
X97624171Y-68406203D02*
X97624171Y-69120489D01*
X97624171Y-69120489D02*
X96909885Y-69191917D01*
X96909885Y-69191917D02*
X96981314Y-69120489D01*
X96981314Y-69120489D02*
X97052742Y-68977632D01*
X97052742Y-68977632D02*
X97052742Y-68620489D01*
X97052742Y-68620489D02*
X96981314Y-68477632D01*
X96981314Y-68477632D02*
X96909885Y-68406203D01*
X96909885Y-68406203D02*
X96767028Y-68334774D01*
X96767028Y-68334774D02*
X96409885Y-68334774D01*
X96409885Y-68334774D02*
X96267028Y-68406203D01*
X96267028Y-68406203D02*
X96195600Y-68477632D01*
X96195600Y-68477632D02*
X96124171Y-68620489D01*
X96124171Y-68620489D02*
X96124171Y-68977632D01*
X96124171Y-68977632D02*
X96195600Y-69120489D01*
X96195600Y-69120489D02*
X96267028Y-69191917D01*
X97624171Y-67906203D02*
X96124171Y-67406203D01*
X96124171Y-67406203D02*
X97624171Y-66906203D01*
D10*
X112437319Y-140437762D02*
X111961128Y-140104429D01*
X112437319Y-139866334D02*
X111437319Y-139866334D01*
X111437319Y-139866334D02*
X111437319Y-140247286D01*
X111437319Y-140247286D02*
X111484938Y-140342524D01*
X111484938Y-140342524D02*
X111532557Y-140390143D01*
X111532557Y-140390143D02*
X111627795Y-140437762D01*
X111627795Y-140437762D02*
X111770652Y-140437762D01*
X111770652Y-140437762D02*
X111865890Y-140390143D01*
X111865890Y-140390143D02*
X111913509Y-140342524D01*
X111913509Y-140342524D02*
X111961128Y-140247286D01*
X111961128Y-140247286D02*
X111961128Y-139866334D01*
X111437319Y-140771096D02*
X112437319Y-141437762D01*
X111437319Y-141437762D02*
X112437319Y-140771096D01*
X112437319Y-141818715D02*
X111437319Y-141818715D01*
X97719819Y-136958238D02*
X96719819Y-136958238D01*
X96719819Y-136958238D02*
X96719819Y-137339190D01*
X96719819Y-137339190D02*
X96767438Y-137434428D01*
X96767438Y-137434428D02*
X96815057Y-137482047D01*
X96815057Y-137482047D02*
X96910295Y-137529666D01*
X96910295Y-137529666D02*
X97053152Y-137529666D01*
X97053152Y-137529666D02*
X97148390Y-137482047D01*
X97148390Y-137482047D02*
X97196009Y-137434428D01*
X97196009Y-137434428D02*
X97243628Y-137339190D01*
X97243628Y-137339190D02*
X97243628Y-136958238D01*
X96719819Y-137863000D02*
X97719819Y-138101095D01*
X97719819Y-138101095D02*
X97005533Y-138291571D01*
X97005533Y-138291571D02*
X97719819Y-138482047D01*
X97719819Y-138482047D02*
X96719819Y-138720143D01*
X97719819Y-139101095D02*
X96719819Y-139101095D01*
X96719819Y-139101095D02*
X97434104Y-139434428D01*
X97434104Y-139434428D02*
X96719819Y-139767761D01*
X96719819Y-139767761D02*
X97719819Y-139767761D01*
X119082438Y-139771095D02*
X119034819Y-139675857D01*
X119034819Y-139675857D02*
X119034819Y-139533000D01*
X119034819Y-139533000D02*
X119082438Y-139390143D01*
X119082438Y-139390143D02*
X119177676Y-139294905D01*
X119177676Y-139294905D02*
X119272914Y-139247286D01*
X119272914Y-139247286D02*
X119463390Y-139199667D01*
X119463390Y-139199667D02*
X119606247Y-139199667D01*
X119606247Y-139199667D02*
X119796723Y-139247286D01*
X119796723Y-139247286D02*
X119891961Y-139294905D01*
X119891961Y-139294905D02*
X119987200Y-139390143D01*
X119987200Y-139390143D02*
X120034819Y-139533000D01*
X120034819Y-139533000D02*
X120034819Y-139628238D01*
X120034819Y-139628238D02*
X119987200Y-139771095D01*
X119987200Y-139771095D02*
X119939580Y-139818714D01*
X119939580Y-139818714D02*
X119606247Y-139818714D01*
X119606247Y-139818714D02*
X119606247Y-139628238D01*
X120034819Y-140247286D02*
X119034819Y-140247286D01*
X119034819Y-140247286D02*
X120034819Y-140818714D01*
X120034819Y-140818714D02*
X119034819Y-140818714D01*
X120034819Y-141294905D02*
X119034819Y-141294905D01*
X119034819Y-141294905D02*
X119034819Y-141533000D01*
X119034819Y-141533000D02*
X119082438Y-141675857D01*
X119082438Y-141675857D02*
X119177676Y-141771095D01*
X119177676Y-141771095D02*
X119272914Y-141818714D01*
X119272914Y-141818714D02*
X119463390Y-141866333D01*
X119463390Y-141866333D02*
X119606247Y-141866333D01*
X119606247Y-141866333D02*
X119796723Y-141818714D01*
X119796723Y-141818714D02*
X119891961Y-141771095D01*
X119891961Y-141771095D02*
X119987200Y-141675857D01*
X119987200Y-141675857D02*
X120034819Y-141533000D01*
X120034819Y-141533000D02*
X120034819Y-141294905D01*
X113969819Y-139390143D02*
X113969819Y-139961571D01*
X114969819Y-139675857D02*
X113969819Y-139675857D01*
X113969819Y-140199667D02*
X114969819Y-140866333D01*
X113969819Y-140866333D02*
X114969819Y-140199667D01*
X113969819Y-141437762D02*
X113969819Y-141628238D01*
X113969819Y-141628238D02*
X114017438Y-141723476D01*
X114017438Y-141723476D02*
X114112676Y-141818714D01*
X114112676Y-141818714D02*
X114303152Y-141866333D01*
X114303152Y-141866333D02*
X114636485Y-141866333D01*
X114636485Y-141866333D02*
X114826961Y-141818714D01*
X114826961Y-141818714D02*
X114922200Y-141723476D01*
X114922200Y-141723476D02*
X114969819Y-141628238D01*
X114969819Y-141628238D02*
X114969819Y-141437762D01*
X114969819Y-141437762D02*
X114922200Y-141342524D01*
X114922200Y-141342524D02*
X114826961Y-141247286D01*
X114826961Y-141247286D02*
X114636485Y-141199667D01*
X114636485Y-141199667D02*
X114303152Y-141199667D01*
X114303152Y-141199667D02*
X114112676Y-141247286D01*
X114112676Y-141247286D02*
X114017438Y-141342524D01*
X114017438Y-141342524D02*
X113969819Y-141437762D01*
X94187319Y-137482047D02*
X94187319Y-138053475D01*
X95187319Y-137767761D02*
X94187319Y-137767761D01*
X94901604Y-138339190D02*
X94901604Y-138815380D01*
X95187319Y-138243952D02*
X94187319Y-138577285D01*
X94187319Y-138577285D02*
X95187319Y-138910618D01*
X95092080Y-139815380D02*
X95139700Y-139767761D01*
X95139700Y-139767761D02*
X95187319Y-139624904D01*
X95187319Y-139624904D02*
X95187319Y-139529666D01*
X95187319Y-139529666D02*
X95139700Y-139386809D01*
X95139700Y-139386809D02*
X95044461Y-139291571D01*
X95044461Y-139291571D02*
X94949223Y-139243952D01*
X94949223Y-139243952D02*
X94758747Y-139196333D01*
X94758747Y-139196333D02*
X94615890Y-139196333D01*
X94615890Y-139196333D02*
X94425414Y-139243952D01*
X94425414Y-139243952D02*
X94330176Y-139291571D01*
X94330176Y-139291571D02*
X94234938Y-139386809D01*
X94234938Y-139386809D02*
X94187319Y-139529666D01*
X94187319Y-139529666D02*
X94187319Y-139624904D01*
X94187319Y-139624904D02*
X94234938Y-139767761D01*
X94234938Y-139767761D02*
X94282557Y-139815380D01*
X89169938Y-137720143D02*
X89122319Y-137624905D01*
X89122319Y-137624905D02*
X89122319Y-137482048D01*
X89122319Y-137482048D02*
X89169938Y-137339191D01*
X89169938Y-137339191D02*
X89265176Y-137243953D01*
X89265176Y-137243953D02*
X89360414Y-137196334D01*
X89360414Y-137196334D02*
X89550890Y-137148715D01*
X89550890Y-137148715D02*
X89693747Y-137148715D01*
X89693747Y-137148715D02*
X89884223Y-137196334D01*
X89884223Y-137196334D02*
X89979461Y-137243953D01*
X89979461Y-137243953D02*
X90074700Y-137339191D01*
X90074700Y-137339191D02*
X90122319Y-137482048D01*
X90122319Y-137482048D02*
X90122319Y-137577286D01*
X90122319Y-137577286D02*
X90074700Y-137720143D01*
X90074700Y-137720143D02*
X90027080Y-137767762D01*
X90027080Y-137767762D02*
X89693747Y-137767762D01*
X89693747Y-137767762D02*
X89693747Y-137577286D01*
X90122319Y-138196334D02*
X89122319Y-138196334D01*
X89122319Y-138196334D02*
X90122319Y-138767762D01*
X90122319Y-138767762D02*
X89122319Y-138767762D01*
X90122319Y-139243953D02*
X89122319Y-139243953D01*
X89122319Y-139243953D02*
X89122319Y-139482048D01*
X89122319Y-139482048D02*
X89169938Y-139624905D01*
X89169938Y-139624905D02*
X89265176Y-139720143D01*
X89265176Y-139720143D02*
X89360414Y-139767762D01*
X89360414Y-139767762D02*
X89550890Y-139815381D01*
X89550890Y-139815381D02*
X89693747Y-139815381D01*
X89693747Y-139815381D02*
X89884223Y-139767762D01*
X89884223Y-139767762D02*
X89979461Y-139720143D01*
X89979461Y-139720143D02*
X90074700Y-139624905D01*
X90074700Y-139624905D02*
X90122319Y-139482048D01*
X90122319Y-139482048D02*
X90122319Y-139243953D01*
X87423333Y-142934819D02*
X87423333Y-143649104D01*
X87423333Y-143649104D02*
X87470952Y-143791961D01*
X87470952Y-143791961D02*
X87566190Y-143887200D01*
X87566190Y-143887200D02*
X87709047Y-143934819D01*
X87709047Y-143934819D02*
X87804285Y-143934819D01*
X86518571Y-143268152D02*
X86518571Y-143934819D01*
X86756666Y-142887200D02*
X86994761Y-143601485D01*
X86994761Y-143601485D02*
X86375714Y-143601485D01*
X90013333Y-48834819D02*
X90013333Y-49549104D01*
X90013333Y-49549104D02*
X90060952Y-49691961D01*
X90060952Y-49691961D02*
X90156190Y-49787200D01*
X90156190Y-49787200D02*
X90299047Y-49834819D01*
X90299047Y-49834819D02*
X90394285Y-49834819D01*
X89489523Y-49834819D02*
X89299047Y-49834819D01*
X89299047Y-49834819D02*
X89203809Y-49787200D01*
X89203809Y-49787200D02*
X89156190Y-49739580D01*
X89156190Y-49739580D02*
X89060952Y-49596723D01*
X89060952Y-49596723D02*
X89013333Y-49406247D01*
X89013333Y-49406247D02*
X89013333Y-49025295D01*
X89013333Y-49025295D02*
X89060952Y-48930057D01*
X89060952Y-48930057D02*
X89108571Y-48882438D01*
X89108571Y-48882438D02*
X89203809Y-48834819D01*
X89203809Y-48834819D02*
X89394285Y-48834819D01*
X89394285Y-48834819D02*
X89489523Y-48882438D01*
X89489523Y-48882438D02*
X89537142Y-48930057D01*
X89537142Y-48930057D02*
X89584761Y-49025295D01*
X89584761Y-49025295D02*
X89584761Y-49263390D01*
X89584761Y-49263390D02*
X89537142Y-49358628D01*
X89537142Y-49358628D02*
X89489523Y-49406247D01*
X89489523Y-49406247D02*
X89394285Y-49453866D01*
X89394285Y-49453866D02*
X89203809Y-49453866D01*
X89203809Y-49453866D02*
X89108571Y-49406247D01*
X89108571Y-49406247D02*
X89060952Y-49358628D01*
X89060952Y-49358628D02*
X89013333Y-49263390D01*
X88483333Y-76224819D02*
X88483333Y-76939104D01*
X88483333Y-76939104D02*
X88530952Y-77081961D01*
X88530952Y-77081961D02*
X88626190Y-77177200D01*
X88626190Y-77177200D02*
X88769047Y-77224819D01*
X88769047Y-77224819D02*
X88864285Y-77224819D01*
X88102380Y-76224819D02*
X87435714Y-76224819D01*
X87435714Y-76224819D02*
X87864285Y-77224819D01*
X106790857Y-137434580D02*
X106838476Y-137482200D01*
X106838476Y-137482200D02*
X106981333Y-137529819D01*
X106981333Y-137529819D02*
X107076571Y-137529819D01*
X107076571Y-137529819D02*
X107219428Y-137482200D01*
X107219428Y-137482200D02*
X107314666Y-137386961D01*
X107314666Y-137386961D02*
X107362285Y-137291723D01*
X107362285Y-137291723D02*
X107409904Y-137101247D01*
X107409904Y-137101247D02*
X107409904Y-136958390D01*
X107409904Y-136958390D02*
X107362285Y-136767914D01*
X107362285Y-136767914D02*
X107314666Y-136672676D01*
X107314666Y-136672676D02*
X107219428Y-136577438D01*
X107219428Y-136577438D02*
X107076571Y-136529819D01*
X107076571Y-136529819D02*
X106981333Y-136529819D01*
X106981333Y-136529819D02*
X106838476Y-136577438D01*
X106838476Y-136577438D02*
X106790857Y-136625057D01*
X106409904Y-136625057D02*
X106362285Y-136577438D01*
X106362285Y-136577438D02*
X106267047Y-136529819D01*
X106267047Y-136529819D02*
X106028952Y-136529819D01*
X106028952Y-136529819D02*
X105933714Y-136577438D01*
X105933714Y-136577438D02*
X105886095Y-136625057D01*
X105886095Y-136625057D02*
X105838476Y-136720295D01*
X105838476Y-136720295D02*
X105838476Y-136815533D01*
X105838476Y-136815533D02*
X105886095Y-136958390D01*
X105886095Y-136958390D02*
X106457523Y-137529819D01*
X106457523Y-137529819D02*
X105838476Y-137529819D01*
X105267047Y-136958390D02*
X105362285Y-136910771D01*
X105362285Y-136910771D02*
X105409904Y-136863152D01*
X105409904Y-136863152D02*
X105457523Y-136767914D01*
X105457523Y-136767914D02*
X105457523Y-136720295D01*
X105457523Y-136720295D02*
X105409904Y-136625057D01*
X105409904Y-136625057D02*
X105362285Y-136577438D01*
X105362285Y-136577438D02*
X105267047Y-136529819D01*
X105267047Y-136529819D02*
X105076571Y-136529819D01*
X105076571Y-136529819D02*
X104981333Y-136577438D01*
X104981333Y-136577438D02*
X104933714Y-136625057D01*
X104933714Y-136625057D02*
X104886095Y-136720295D01*
X104886095Y-136720295D02*
X104886095Y-136767914D01*
X104886095Y-136767914D02*
X104933714Y-136863152D01*
X104933714Y-136863152D02*
X104981333Y-136910771D01*
X104981333Y-136910771D02*
X105076571Y-136958390D01*
X105076571Y-136958390D02*
X105267047Y-136958390D01*
X105267047Y-136958390D02*
X105362285Y-137006009D01*
X105362285Y-137006009D02*
X105409904Y-137053628D01*
X105409904Y-137053628D02*
X105457523Y-137148866D01*
X105457523Y-137148866D02*
X105457523Y-137339342D01*
X105457523Y-137339342D02*
X105409904Y-137434580D01*
X105409904Y-137434580D02*
X105362285Y-137482200D01*
X105362285Y-137482200D02*
X105267047Y-137529819D01*
X105267047Y-137529819D02*
X105076571Y-137529819D01*
X105076571Y-137529819D02*
X104981333Y-137482200D01*
X104981333Y-137482200D02*
X104933714Y-137434580D01*
X104933714Y-137434580D02*
X104886095Y-137339342D01*
X104886095Y-137339342D02*
X104886095Y-137148866D01*
X104886095Y-137148866D02*
X104933714Y-137053628D01*
X104933714Y-137053628D02*
X104981333Y-137006009D01*
X104981333Y-137006009D02*
X105076571Y-136958390D01*
X86173333Y-61194819D02*
X86173333Y-61909104D01*
X86173333Y-61909104D02*
X86220952Y-62051961D01*
X86220952Y-62051961D02*
X86316190Y-62147200D01*
X86316190Y-62147200D02*
X86459047Y-62194819D01*
X86459047Y-62194819D02*
X86554285Y-62194819D01*
X85173333Y-62194819D02*
X85744761Y-62194819D01*
X85459047Y-62194819D02*
X85459047Y-61194819D01*
X85459047Y-61194819D02*
X85554285Y-61337676D01*
X85554285Y-61337676D02*
X85649523Y-61432914D01*
X85649523Y-61432914D02*
X85744761Y-61480533D01*
X131608381Y-107530819D02*
X131941714Y-107054628D01*
X132179809Y-107530819D02*
X132179809Y-106530819D01*
X132179809Y-106530819D02*
X131798857Y-106530819D01*
X131798857Y-106530819D02*
X131703619Y-106578438D01*
X131703619Y-106578438D02*
X131656000Y-106626057D01*
X131656000Y-106626057D02*
X131608381Y-106721295D01*
X131608381Y-106721295D02*
X131608381Y-106864152D01*
X131608381Y-106864152D02*
X131656000Y-106959390D01*
X131656000Y-106959390D02*
X131703619Y-107007009D01*
X131703619Y-107007009D02*
X131798857Y-107054628D01*
X131798857Y-107054628D02*
X132179809Y-107054628D01*
X131179809Y-107007009D02*
X130846476Y-107007009D01*
X130703619Y-107530819D02*
X131179809Y-107530819D01*
X131179809Y-107530819D02*
X131179809Y-106530819D01*
X131179809Y-106530819D02*
X130703619Y-106530819D01*
X130322666Y-107483200D02*
X130179809Y-107530819D01*
X130179809Y-107530819D02*
X129941714Y-107530819D01*
X129941714Y-107530819D02*
X129846476Y-107483200D01*
X129846476Y-107483200D02*
X129798857Y-107435580D01*
X129798857Y-107435580D02*
X129751238Y-107340342D01*
X129751238Y-107340342D02*
X129751238Y-107245104D01*
X129751238Y-107245104D02*
X129798857Y-107149866D01*
X129798857Y-107149866D02*
X129846476Y-107102247D01*
X129846476Y-107102247D02*
X129941714Y-107054628D01*
X129941714Y-107054628D02*
X130132190Y-107007009D01*
X130132190Y-107007009D02*
X130227428Y-106959390D01*
X130227428Y-106959390D02*
X130275047Y-106911771D01*
X130275047Y-106911771D02*
X130322666Y-106816533D01*
X130322666Y-106816533D02*
X130322666Y-106721295D01*
X130322666Y-106721295D02*
X130275047Y-106626057D01*
X130275047Y-106626057D02*
X130227428Y-106578438D01*
X130227428Y-106578438D02*
X130132190Y-106530819D01*
X130132190Y-106530819D02*
X129894095Y-106530819D01*
X129894095Y-106530819D02*
X129751238Y-106578438D01*
X129322666Y-107007009D02*
X128989333Y-107007009D01*
X128846476Y-107530819D02*
X129322666Y-107530819D01*
X129322666Y-107530819D02*
X129322666Y-106530819D01*
X129322666Y-106530819D02*
X128846476Y-106530819D01*
X128560761Y-106530819D02*
X127989333Y-106530819D01*
X128275047Y-107530819D02*
X128275047Y-106530819D01*
D12*
X94259766Y-65525012D02*
X94259766Y-64572632D01*
X93783576Y-65048822D02*
X94735957Y-65048822D01*
X94269766Y-72035012D02*
X94269766Y-71082632D01*
D10*
X83228333Y-126441819D02*
X83228333Y-127156104D01*
X83228333Y-127156104D02*
X83275952Y-127298961D01*
X83275952Y-127298961D02*
X83371190Y-127394200D01*
X83371190Y-127394200D02*
X83514047Y-127441819D01*
X83514047Y-127441819D02*
X83609285Y-127441819D01*
X82799761Y-126537057D02*
X82752142Y-126489438D01*
X82752142Y-126489438D02*
X82656904Y-126441819D01*
X82656904Y-126441819D02*
X82418809Y-126441819D01*
X82418809Y-126441819D02*
X82323571Y-126489438D01*
X82323571Y-126489438D02*
X82275952Y-126537057D01*
X82275952Y-126537057D02*
X82228333Y-126632295D01*
X82228333Y-126632295D02*
X82228333Y-126727533D01*
X82228333Y-126727533D02*
X82275952Y-126870390D01*
X82275952Y-126870390D02*
X82847380Y-127441819D01*
X82847380Y-127441819D02*
X82228333Y-127441819D01*
X131514142Y-115659009D02*
X131371285Y-115706628D01*
X131371285Y-115706628D02*
X131323666Y-115754247D01*
X131323666Y-115754247D02*
X131276047Y-115849485D01*
X131276047Y-115849485D02*
X131276047Y-115992342D01*
X131276047Y-115992342D02*
X131323666Y-116087580D01*
X131323666Y-116087580D02*
X131371285Y-116135200D01*
X131371285Y-116135200D02*
X131466523Y-116182819D01*
X131466523Y-116182819D02*
X131847475Y-116182819D01*
X131847475Y-116182819D02*
X131847475Y-115182819D01*
X131847475Y-115182819D02*
X131514142Y-115182819D01*
X131514142Y-115182819D02*
X131418904Y-115230438D01*
X131418904Y-115230438D02*
X131371285Y-115278057D01*
X131371285Y-115278057D02*
X131323666Y-115373295D01*
X131323666Y-115373295D02*
X131323666Y-115468533D01*
X131323666Y-115468533D02*
X131371285Y-115563771D01*
X131371285Y-115563771D02*
X131418904Y-115611390D01*
X131418904Y-115611390D02*
X131514142Y-115659009D01*
X131514142Y-115659009D02*
X131847475Y-115659009D01*
X130656999Y-115182819D02*
X130466523Y-115182819D01*
X130466523Y-115182819D02*
X130371285Y-115230438D01*
X130371285Y-115230438D02*
X130276047Y-115325676D01*
X130276047Y-115325676D02*
X130228428Y-115516152D01*
X130228428Y-115516152D02*
X130228428Y-115849485D01*
X130228428Y-115849485D02*
X130276047Y-116039961D01*
X130276047Y-116039961D02*
X130371285Y-116135200D01*
X130371285Y-116135200D02*
X130466523Y-116182819D01*
X130466523Y-116182819D02*
X130656999Y-116182819D01*
X130656999Y-116182819D02*
X130752237Y-116135200D01*
X130752237Y-116135200D02*
X130847475Y-116039961D01*
X130847475Y-116039961D02*
X130895094Y-115849485D01*
X130895094Y-115849485D02*
X130895094Y-115516152D01*
X130895094Y-115516152D02*
X130847475Y-115325676D01*
X130847475Y-115325676D02*
X130752237Y-115230438D01*
X130752237Y-115230438D02*
X130656999Y-115182819D01*
X129609380Y-115182819D02*
X129418904Y-115182819D01*
X129418904Y-115182819D02*
X129323666Y-115230438D01*
X129323666Y-115230438D02*
X129228428Y-115325676D01*
X129228428Y-115325676D02*
X129180809Y-115516152D01*
X129180809Y-115516152D02*
X129180809Y-115849485D01*
X129180809Y-115849485D02*
X129228428Y-116039961D01*
X129228428Y-116039961D02*
X129323666Y-116135200D01*
X129323666Y-116135200D02*
X129418904Y-116182819D01*
X129418904Y-116182819D02*
X129609380Y-116182819D01*
X129609380Y-116182819D02*
X129704618Y-116135200D01*
X129704618Y-116135200D02*
X129799856Y-116039961D01*
X129799856Y-116039961D02*
X129847475Y-115849485D01*
X129847475Y-115849485D02*
X129847475Y-115516152D01*
X129847475Y-115516152D02*
X129799856Y-115325676D01*
X129799856Y-115325676D02*
X129704618Y-115230438D01*
X129704618Y-115230438D02*
X129609380Y-115182819D01*
X128895094Y-115182819D02*
X128323666Y-115182819D01*
X128609380Y-116182819D02*
X128609380Y-115182819D01*
D13*
%TO.C,J4*%
X88198600Y-140193000D02*
X98663400Y-140193000D01*
X88198600Y-146289000D02*
X88198600Y-140193000D01*
X93861825Y-146289000D02*
X88198600Y-146289000D01*
X98663400Y-140193000D02*
X98663400Y-146289000D01*
X98663400Y-146289000D02*
X95540175Y-146289000D01*
%TO.C,J9*%
X88535000Y-59330000D02*
X85875000Y-59330000D01*
X88535000Y-58660000D02*
X88535000Y-59330000D01*
X88535000Y-53580000D02*
X88535000Y-57140000D01*
X88535000Y-48850000D02*
X88535000Y-52060000D01*
X88535000Y-48850000D02*
X85875000Y-48850000D01*
X85875000Y-56120000D02*
X85875000Y-59330000D01*
X85875000Y-51040000D02*
X85875000Y-54600000D01*
X85875000Y-49520000D02*
X84665000Y-49520000D01*
X85875000Y-48850000D02*
X85875000Y-49520000D01*
%TO.C,J7*%
X86870000Y-75210000D02*
X86870000Y-77870000D01*
X84270000Y-75210000D02*
X86870000Y-75210000D01*
X84270000Y-75210000D02*
X84270000Y-77870000D01*
X83000000Y-75210000D02*
X81670000Y-75210000D01*
X81670000Y-75210000D02*
X81670000Y-76540000D01*
X84270000Y-77870000D02*
X86870000Y-77870000D01*
%TO.C,J8*%
X132148000Y-87786000D02*
X133298000Y-87786000D01*
X130048000Y-87786000D02*
X128248000Y-87786000D01*
X132148000Y-97126000D02*
X133298000Y-97126000D01*
X130048000Y-97126000D02*
X128248000Y-97126000D01*
%TO.C,U12*%
X107680000Y-81610000D02*
X107680000Y-80610000D01*
X108430000Y-81610000D02*
X107680000Y-81610000D01*
X107680000Y-63610000D02*
X107680000Y-64610000D01*
X108430000Y-63610000D02*
X107680000Y-63610000D01*
D14*
%TO.C,G\u002A\u002A\u002A*%
G36*
X118501554Y-95339509D02*
G01*
X118504814Y-95345777D01*
X118487663Y-95353401D01*
X118476632Y-95351897D01*
X118473772Y-95339509D01*
X118476826Y-95337016D01*
X118501554Y-95339509D01*
G37*
%TO.C,U14*%
D15*
X108612000Y-112568000D02*
X102612000Y-112568000D01*
X102612000Y-119568000D01*
X108612000Y-119568000D01*
X108612000Y-112568000D01*
D16*
X109045742Y-112258000D02*
G75*
G02*
X108818258Y-112258000I-113742J0D01*
G01*
X108818258Y-112258000D02*
G75*
G02*
X109045742Y-112258000I113742J0D01*
G01*
D13*
%TO.C,C28*%
X101642500Y-136982500D02*
X101642500Y-137770000D01*
X101248750Y-137376250D02*
X102036250Y-137376250D01*
X105835563Y-138010000D02*
X104550000Y-138010000D01*
X105835563Y-138010000D02*
X106900000Y-139074437D01*
X101144437Y-138010000D02*
X102430000Y-138010000D01*
X101144437Y-138010000D02*
X100080000Y-139074437D01*
X106900000Y-139074437D02*
X106900000Y-144830000D01*
X100080000Y-139074437D02*
X100080000Y-144830000D01*
X106900000Y-144830000D02*
X104550000Y-144830000D01*
X100080000Y-144830000D02*
X102430000Y-144830000D01*
%TO.C,J1*%
X83685000Y-74110000D02*
X81815000Y-74110000D01*
X89835000Y-74110000D02*
X87965000Y-74110000D01*
X90160000Y-72650000D02*
X91850000Y-72650000D01*
X87620000Y-71950000D02*
X84010000Y-71950000D01*
X91850000Y-65750000D02*
X91850000Y-72650000D01*
X92550000Y-65750000D02*
X91850000Y-65750000D01*
X87640000Y-62750000D02*
X84010000Y-62750000D01*
X92550000Y-62750000D02*
X92550000Y-65750000D01*
X92550000Y-62750000D02*
X90160000Y-62750000D01*
D17*
%TO.C,SW1*%
X132218000Y-105972000D02*
X128154000Y-105972000D01*
X132218000Y-105542740D02*
X132218000Y-105972000D01*
X132218000Y-102924000D02*
X132218000Y-103353260D01*
X128154000Y-105972000D02*
X128154000Y-105542740D01*
X128154000Y-103353260D02*
X128154000Y-102924000D01*
X128154000Y-102924000D02*
X132218000Y-102924000D01*
D14*
%TO.C,G\u002A\u002A\u002A*%
G36*
X120093946Y-53449838D02*
G01*
X120093946Y-54754162D01*
X119613405Y-54754162D01*
X119132865Y-54754162D01*
X119132865Y-53449838D01*
X119132865Y-52145513D01*
X119613405Y-52145513D01*
X120093946Y-52145513D01*
X120093946Y-53449838D01*
G37*
G36*
X105540432Y-53449838D02*
G01*
X105540432Y-54754162D01*
X105059892Y-54754162D01*
X104579351Y-54754162D01*
X104579351Y-53449838D01*
X104579351Y-52145513D01*
X105059892Y-52145513D01*
X105540432Y-52145513D01*
X105540432Y-53449838D01*
G37*
G36*
X119830342Y-51330705D02*
G01*
X120040192Y-51407068D01*
X120093946Y-51596324D01*
X120078238Y-51720288D01*
X119944604Y-51840202D01*
X119613405Y-51870919D01*
X119396468Y-51861943D01*
X119186619Y-51785580D01*
X119132865Y-51596324D01*
X119148572Y-51472360D01*
X119282207Y-51352446D01*
X119613405Y-51321729D01*
X119830342Y-51330705D01*
G37*
G36*
X105276828Y-51330705D02*
G01*
X105486678Y-51407068D01*
X105540432Y-51596324D01*
X105524724Y-51720288D01*
X105391090Y-51840202D01*
X105059892Y-51870919D01*
X104842955Y-51861943D01*
X104633105Y-51785580D01*
X104579351Y-51596324D01*
X104595059Y-51472360D01*
X104728693Y-51352446D01*
X105059892Y-51321729D01*
X105276828Y-51330705D01*
G37*
G36*
X123663675Y-51733621D02*
G01*
X123662809Y-51822067D01*
X123623174Y-52041106D01*
X123466630Y-52129248D01*
X123114486Y-52145513D01*
X122565297Y-52145513D01*
X122565297Y-53449838D01*
X122565297Y-54754162D01*
X122016108Y-54754162D01*
X121466919Y-54754162D01*
X121466919Y-53449838D01*
X121466919Y-52145513D01*
X120917729Y-52145513D01*
X120799802Y-52144863D01*
X120507750Y-52115137D01*
X120390227Y-51997729D01*
X120368540Y-51733621D01*
X120368540Y-51321729D01*
X122016108Y-51321729D01*
X123663675Y-51321729D01*
X123663675Y-51733621D01*
G37*
G36*
X98538270Y-51939567D02*
G01*
X98538270Y-52557405D01*
X99087459Y-52557405D01*
X99636648Y-52557405D01*
X99636648Y-51939567D01*
X99636648Y-51321729D01*
X100185838Y-51321729D01*
X100735027Y-51321729D01*
X100735027Y-53037946D01*
X100735027Y-54754162D01*
X100185838Y-54754162D01*
X99636648Y-54754162D01*
X99636648Y-54067675D01*
X99636648Y-53381189D01*
X99087459Y-53381189D01*
X98538270Y-53381189D01*
X98538270Y-54067675D01*
X98538270Y-54754162D01*
X97920432Y-54754162D01*
X97302594Y-54754162D01*
X97302594Y-53037946D01*
X97302594Y-51321729D01*
X97920432Y-51321729D01*
X98538270Y-51321729D01*
X98538270Y-51939567D01*
G37*
G36*
X95105838Y-52874407D02*
G01*
X95147487Y-53381736D01*
X95264613Y-53784381D01*
X95434460Y-54010818D01*
X95634198Y-54011899D01*
X95703985Y-53889714D01*
X95768447Y-53537792D01*
X95792324Y-53029843D01*
X95792324Y-52145513D01*
X96341513Y-52145513D01*
X96890702Y-52145513D01*
X96890702Y-52960359D01*
X96886877Y-53173750D01*
X96814222Y-53851559D01*
X96659474Y-54358797D01*
X96435897Y-54646292D01*
X96206879Y-54728314D01*
X95778362Y-54734257D01*
X95371406Y-54612034D01*
X95189883Y-54540034D01*
X95105838Y-54612034D01*
X95101680Y-54630701D01*
X94942902Y-54718469D01*
X94625297Y-54754162D01*
X94144756Y-54754162D01*
X94144756Y-53449838D01*
X94144756Y-52145513D01*
X94625297Y-52145513D01*
X95105838Y-52145513D01*
X95105838Y-52874407D01*
G37*
G36*
X118583675Y-53449838D02*
G01*
X118583675Y-54754162D01*
X118034486Y-54754162D01*
X117485297Y-54754162D01*
X117485297Y-53857420D01*
X117484509Y-53714913D01*
X117459824Y-53251508D01*
X117391078Y-52990988D01*
X117265494Y-52876333D01*
X117126849Y-52851475D01*
X116942783Y-52980967D01*
X116836297Y-53346983D01*
X116800913Y-53964702D01*
X116798811Y-54754162D01*
X116318270Y-54754162D01*
X115837729Y-54754162D01*
X115837729Y-53754982D01*
X115839210Y-53590758D01*
X115895272Y-52914604D01*
X116043631Y-52467838D01*
X116299558Y-52221221D01*
X116678325Y-52145513D01*
X117022252Y-52182022D01*
X117357026Y-52287641D01*
X117538549Y-52359641D01*
X117622594Y-52287641D01*
X117626751Y-52268974D01*
X117785530Y-52181206D01*
X118103135Y-52145513D01*
X118583675Y-52145513D01*
X118583675Y-53449838D01*
G37*
G36*
X108698270Y-53037946D02*
G01*
X108698270Y-54754162D01*
X108217729Y-54754162D01*
X107737189Y-54754162D01*
X107735087Y-53964702D01*
X107723753Y-53588492D01*
X107649542Y-53112922D01*
X107500620Y-52880595D01*
X107270505Y-52876333D01*
X107235649Y-52892924D01*
X107124384Y-53036328D01*
X107066994Y-53338820D01*
X107050702Y-53857420D01*
X107050702Y-54754162D01*
X106570162Y-54754162D01*
X106089621Y-54754162D01*
X106089621Y-53700919D01*
X106090161Y-53574007D01*
X106116021Y-52998559D01*
X106188141Y-52625848D01*
X106316847Y-52396594D01*
X106472487Y-52278934D01*
X106856136Y-52162035D01*
X107266351Y-52169485D01*
X107572432Y-52310270D01*
X107661145Y-52363106D01*
X107720679Y-52248563D01*
X107737189Y-51898378D01*
X107738932Y-51689909D01*
X107777108Y-51433820D01*
X107915230Y-51336866D01*
X108217729Y-51321729D01*
X108698270Y-51321729D01*
X108698270Y-53037946D01*
G37*
G36*
X104030162Y-53930378D02*
G01*
X104030162Y-55715243D01*
X103480973Y-55715243D01*
X103293539Y-55713956D01*
X103039720Y-55674771D01*
X102945557Y-55522285D01*
X102931784Y-55179119D01*
X102931784Y-54642994D01*
X102398534Y-54714518D01*
X101946946Y-54693521D01*
X101531047Y-54469182D01*
X101266797Y-54069145D01*
X101180197Y-53535961D01*
X101196711Y-53447957D01*
X102313946Y-53447957D01*
X102320123Y-53646347D01*
X102388861Y-53931979D01*
X102554631Y-54041618D01*
X102763424Y-54008263D01*
X102902815Y-53756683D01*
X102907698Y-53289814D01*
X102907255Y-53285989D01*
X102810109Y-52988351D01*
X102588540Y-52900648D01*
X102430819Y-52931281D01*
X102337142Y-53089409D01*
X102313946Y-53447957D01*
X101196711Y-53447957D01*
X101297247Y-52912182D01*
X101371703Y-52730605D01*
X101691113Y-52320573D01*
X102127642Y-52154786D01*
X102662122Y-52242645D01*
X102690521Y-52253065D01*
X102959156Y-52315122D01*
X103069081Y-52270884D01*
X103073216Y-52254462D01*
X103231956Y-52177012D01*
X103549621Y-52145513D01*
X104030162Y-52145513D01*
X104030162Y-53289814D01*
X104030162Y-53930378D01*
G37*
G36*
X93595567Y-54754162D02*
G01*
X93183675Y-54754162D01*
X93178704Y-54754153D01*
X92891141Y-54716833D01*
X92771784Y-54628791D01*
X92771727Y-54626569D01*
X92657682Y-54581955D01*
X92384105Y-54649752D01*
X92101564Y-54724366D01*
X91604377Y-54680813D01*
X91207530Y-54411522D01*
X90944714Y-53945841D01*
X90896726Y-53626544D01*
X91825883Y-53626544D01*
X91975459Y-53902919D01*
X92066160Y-53983129D01*
X92222594Y-54067675D01*
X92303939Y-54055178D01*
X92505946Y-53878219D01*
X92606719Y-53570677D01*
X92587252Y-53233915D01*
X92428540Y-52969297D01*
X92374733Y-52930815D01*
X92135965Y-52897973D01*
X91941395Y-53051416D01*
X91826281Y-53318492D01*
X91825883Y-53626544D01*
X90896726Y-53626544D01*
X90849621Y-53313118D01*
X90897010Y-52948542D01*
X91141869Y-52498172D01*
X91556168Y-52230127D01*
X92095734Y-52184419D01*
X92271970Y-52207040D01*
X92525954Y-52207528D01*
X92620500Y-52087538D01*
X92634486Y-51789205D01*
X92634526Y-51760965D01*
X92660725Y-51462401D01*
X92792858Y-51343261D01*
X93115027Y-51321729D01*
X93595567Y-51321729D01*
X93595567Y-53037946D01*
X93595567Y-53570677D01*
X93595567Y-54754162D01*
G37*
G36*
X111263876Y-51352708D02*
G01*
X111592324Y-51488452D01*
X111938486Y-51788540D01*
X112116092Y-51974580D01*
X112305556Y-52247920D01*
X112387560Y-52563842D01*
X112405297Y-53037946D01*
X112400267Y-53340728D01*
X112350235Y-53708390D01*
X112210705Y-53985397D01*
X111938486Y-54287351D01*
X111604527Y-54579176D01*
X111277732Y-54720341D01*
X110833290Y-54754162D01*
X110149588Y-54671250D01*
X109606488Y-54412229D01*
X109267616Y-53988437D01*
X109237488Y-53919498D01*
X109174150Y-53631850D01*
X109310657Y-53455009D01*
X109684337Y-53329994D01*
X109763046Y-53313276D01*
X110014519Y-53325931D01*
X110139704Y-53517895D01*
X110182082Y-53609026D01*
X110441341Y-53825108D01*
X110790721Y-53898042D01*
X111102756Y-53791601D01*
X111123011Y-53772617D01*
X111257137Y-53481191D01*
X111306919Y-53018191D01*
X111285217Y-52639539D01*
X111186850Y-52405668D01*
X110969300Y-52260391D01*
X110912969Y-52235977D01*
X110608881Y-52185188D01*
X110290528Y-52330094D01*
X110048779Y-52446123D01*
X109529768Y-52469705D01*
X109422884Y-52447208D01*
X109171215Y-52354939D01*
X109155354Y-52202262D01*
X109353485Y-51921312D01*
X109662255Y-51621850D01*
X110161272Y-51391988D01*
X110831082Y-51321729D01*
X111263876Y-51352708D01*
G37*
G36*
X113327788Y-52151011D02*
G01*
X113532969Y-52214734D01*
X113661476Y-52407059D01*
X113781594Y-52797675D01*
X113875179Y-53134059D01*
X113990287Y-53463418D01*
X114084864Y-53538375D01*
X114185460Y-53366781D01*
X114318620Y-52956486D01*
X114446518Y-52560661D01*
X114575923Y-52319682D01*
X114756533Y-52212803D01*
X115052356Y-52171550D01*
X115143476Y-52165214D01*
X115442500Y-52167127D01*
X115563135Y-52207861D01*
X115548548Y-52263265D01*
X115453659Y-52529258D01*
X115289966Y-52956355D01*
X115080314Y-53484161D01*
X114967976Y-53772396D01*
X114791697Y-54275737D01*
X114683737Y-54658632D01*
X114664113Y-54855147D01*
X114790905Y-54967764D01*
X115078285Y-55028756D01*
X115149113Y-55030525D01*
X115370048Y-55111804D01*
X115425838Y-55372000D01*
X115424560Y-55443124D01*
X115376966Y-55623286D01*
X115205171Y-55699500D01*
X114834241Y-55715243D01*
X114702384Y-55711266D01*
X114290337Y-55651775D01*
X114011638Y-55543621D01*
X113917545Y-55407371D01*
X113744891Y-55061976D01*
X113528319Y-54575718D01*
X113293398Y-54011939D01*
X113065695Y-53433983D01*
X112870780Y-52905194D01*
X112734218Y-52488914D01*
X112681580Y-52248486D01*
X112683867Y-52237866D01*
X112832549Y-52172304D01*
X113142589Y-52145513D01*
X113327788Y-52151011D01*
G37*
D12*
%TO.C,U3*%
X94265000Y-69174270D02*
X94265000Y-70614999D01*
X94265000Y-68155000D02*
X94265000Y-66125165D01*
X94980000Y-67450000D02*
G75*
G02*
X93487677Y-67495970I-724999J-709999D01*
G01*
X95272583Y-71622582D02*
G75*
G02*
X93257417Y-71622582I-1007583J0D01*
G01*
X93257417Y-71622582D02*
G75*
G02*
X95272583Y-71622582I1007583J0D01*
G01*
D18*
X94410000Y-68160000D02*
G75*
G02*
X94100000Y-68160000I-155000J0D01*
G01*
X94100000Y-68160000D02*
G75*
G02*
X94410000Y-68160000I155000J0D01*
G01*
D12*
X95272583Y-65117582D02*
G75*
G02*
X93257417Y-65117582I-1007583J0D01*
G01*
X93257417Y-65117582D02*
G75*
G02*
X95272583Y-65117582I1007583J0D01*
G01*
D14*
%TO.C,G\u002A\u002A\u002A*%
G36*
X81474093Y-110270418D02*
G01*
X81618333Y-110400457D01*
X81603878Y-110586497D01*
X81462710Y-110692993D01*
X81294600Y-110654019D01*
X81215668Y-110475580D01*
X81245923Y-110346097D01*
X81375498Y-110253746D01*
X81474093Y-110270418D01*
G37*
G36*
X80915404Y-124376667D02*
G01*
X80993834Y-124562043D01*
X80957376Y-124705447D01*
X80772000Y-124783877D01*
X80628596Y-124747420D01*
X80550166Y-124562043D01*
X80586623Y-124418639D01*
X80772000Y-124340209D01*
X80915404Y-124376667D01*
G37*
G36*
X80028068Y-124376667D02*
G01*
X80106498Y-124562043D01*
X80070040Y-124705447D01*
X79884664Y-124783877D01*
X79741260Y-124747420D01*
X79662830Y-124562043D01*
X79699287Y-124418639D01*
X79884664Y-124340209D01*
X80028068Y-124376667D01*
G37*
G36*
X81626770Y-107212876D02*
G01*
X81622087Y-107417907D01*
X81574461Y-107502716D01*
X81437502Y-107591738D01*
X81428852Y-107591480D01*
X81290234Y-107495248D01*
X81241486Y-107300838D01*
X81311857Y-107118431D01*
X81357531Y-107082964D01*
X81516461Y-107079872D01*
X81626770Y-107212876D01*
G37*
G36*
X81133594Y-98956456D02*
G01*
X81184422Y-99104618D01*
X81119260Y-99416822D01*
X80936504Y-99904591D01*
X80880916Y-100024875D01*
X80703212Y-100250587D01*
X80518181Y-100255531D01*
X80327568Y-100040356D01*
X80133114Y-99605711D01*
X80113746Y-99551784D01*
X79998024Y-99213784D01*
X79957932Y-99030493D01*
X79990671Y-98954954D01*
X80093441Y-98940209D01*
X80133700Y-98944514D01*
X80296419Y-99077487D01*
X80437288Y-99411607D01*
X80581357Y-99883004D01*
X80741380Y-99411607D01*
X80780500Y-99306637D01*
X80926779Y-99040595D01*
X81070560Y-98940209D01*
X81133594Y-98956456D01*
G37*
G36*
X81133594Y-97403618D02*
G01*
X81184422Y-97551780D01*
X81119260Y-97863983D01*
X80936504Y-98351753D01*
X80880916Y-98472037D01*
X80703212Y-98697748D01*
X80518181Y-98702692D01*
X80327568Y-98487518D01*
X80133114Y-98052873D01*
X80113746Y-97998945D01*
X79998024Y-97660945D01*
X79957932Y-97477654D01*
X79990671Y-97402115D01*
X80093441Y-97387371D01*
X80133700Y-97391675D01*
X80296419Y-97524649D01*
X80437288Y-97858768D01*
X80581357Y-98330166D01*
X80741380Y-97858768D01*
X80780500Y-97753798D01*
X80926779Y-97487756D01*
X81070560Y-97387371D01*
X81133594Y-97403618D01*
G37*
G36*
X79942433Y-117746849D02*
G01*
X79997279Y-117990209D01*
X80029048Y-118273709D01*
X80164495Y-118508376D01*
X80397081Y-118553164D01*
X80408874Y-118550633D01*
X80560613Y-118436875D01*
X80605624Y-118163663D01*
X80609198Y-118052745D01*
X80662290Y-117793105D01*
X80762185Y-117699301D01*
X80887249Y-117799317D01*
X80955712Y-117960586D01*
X80982103Y-118331198D01*
X80879015Y-118690733D01*
X80712794Y-118835578D01*
X80417078Y-118904735D01*
X80094622Y-118871049D01*
X79837128Y-118730977D01*
X79740931Y-118575481D01*
X79672039Y-118300402D01*
X79663402Y-118009471D01*
X79715598Y-117778972D01*
X79829205Y-117685187D01*
X79942433Y-117746849D01*
G37*
G36*
X80958265Y-106032933D02*
G01*
X80825526Y-106302279D01*
X80627582Y-106421124D01*
X80328332Y-106482567D01*
X79962379Y-106395215D01*
X79737647Y-106149896D01*
X79690590Y-105818584D01*
X80051039Y-105818584D01*
X80078606Y-105900204D01*
X80238934Y-106001301D01*
X80450860Y-106016231D01*
X80607677Y-105924661D01*
X80630107Y-105861825D01*
X80574466Y-105686082D01*
X80541285Y-105658506D01*
X80338464Y-105606747D01*
X80140280Y-105668908D01*
X80051039Y-105818584D01*
X79690590Y-105818584D01*
X79684569Y-105776195D01*
X79793177Y-105468702D01*
X80026024Y-105271679D01*
X80320924Y-105203917D01*
X80617291Y-105265415D01*
X80854543Y-105456174D01*
X80972095Y-105776195D01*
X80967482Y-105861825D01*
X80958265Y-106032933D01*
G37*
G36*
X79967044Y-120872379D02*
G01*
X80050840Y-121069637D01*
X80051131Y-121087691D01*
X80081574Y-121196473D01*
X80194841Y-121262168D01*
X80437266Y-121299346D01*
X80855188Y-121322579D01*
X81659336Y-121355168D01*
X81659336Y-121738518D01*
X81659158Y-121765383D01*
X81616737Y-122036546D01*
X81492961Y-122121869D01*
X81415371Y-122102543D01*
X81326585Y-121955493D01*
X81326582Y-121954505D01*
X81271445Y-121855106D01*
X81079613Y-121803736D01*
X80709250Y-121789118D01*
X80645111Y-121788844D01*
X80164434Y-121756248D01*
X79863130Y-121655205D01*
X79707246Y-121465530D01*
X79662830Y-121167038D01*
X79669574Y-120990743D01*
X79724253Y-120830998D01*
X79856735Y-120811941D01*
X79967044Y-120872379D01*
G37*
G36*
X80405678Y-103711594D02*
G01*
X80685477Y-103757182D01*
X80857375Y-103848288D01*
X80882163Y-103890159D01*
X80946640Y-104131266D01*
X80974921Y-104458332D01*
X80979930Y-104929729D01*
X80321380Y-104929729D01*
X80051593Y-104926253D01*
X79801890Y-104900486D01*
X79689164Y-104835342D01*
X79662830Y-104714272D01*
X79690031Y-104592781D01*
X79828649Y-104506662D01*
X80134227Y-104464709D01*
X80246758Y-104454302D01*
X80519879Y-104386722D01*
X80605624Y-104264227D01*
X80599208Y-104224045D01*
X80463719Y-104117847D01*
X80134227Y-104063744D01*
X80060138Y-104057391D01*
X79760204Y-103990911D01*
X79662830Y-103869640D01*
X79673668Y-103834449D01*
X79824295Y-103751577D01*
X80093458Y-103710176D01*
X80405678Y-103711594D01*
G37*
G36*
X79551913Y-98940209D02*
G01*
X79552500Y-98959194D01*
X79559351Y-99318768D01*
X79564947Y-99882073D01*
X79569289Y-100632320D01*
X79572377Y-101552720D01*
X79574210Y-102626484D01*
X79574788Y-103836821D01*
X79574112Y-105166942D01*
X79572181Y-106600057D01*
X79568996Y-108119377D01*
X79564556Y-109708113D01*
X79558862Y-111349474D01*
X79551913Y-113026672D01*
X79496454Y-125393921D01*
X79440996Y-113177806D01*
X79434096Y-111532357D01*
X79428352Y-109893690D01*
X79423882Y-108305000D01*
X79420687Y-106783472D01*
X79418766Y-105346293D01*
X79418119Y-104010646D01*
X79418746Y-102793718D01*
X79420648Y-101712694D01*
X79423823Y-100784760D01*
X79428273Y-100027099D01*
X79433997Y-99456898D01*
X79440996Y-99091343D01*
X79496454Y-97220995D01*
X79551913Y-98940209D01*
G37*
G36*
X79926227Y-109851252D02*
G01*
X79995581Y-110031912D01*
X79995771Y-110047848D01*
X80035297Y-110178962D01*
X80182793Y-110239232D01*
X80494707Y-110253746D01*
X80716821Y-110256141D01*
X80910965Y-110290470D01*
X80983179Y-110403423D01*
X80993834Y-110641956D01*
X80993533Y-110677312D01*
X80950513Y-110945983D01*
X80827458Y-111030166D01*
X80730436Y-110988992D01*
X80661083Y-110808332D01*
X80657650Y-110751068D01*
X80571895Y-110621358D01*
X80328332Y-110586497D01*
X80183632Y-110593120D01*
X80031394Y-110665617D01*
X79995581Y-110863790D01*
X79963017Y-111044662D01*
X79829205Y-111141083D01*
X79809159Y-111139770D01*
X79720902Y-111069478D01*
X79675607Y-110862007D01*
X79662830Y-110475580D01*
X79663158Y-110395395D01*
X79680731Y-110042368D01*
X79732598Y-109861188D01*
X79829205Y-109810078D01*
X79926227Y-109851252D01*
G37*
G36*
X79926227Y-106745575D02*
G01*
X79995581Y-106926235D01*
X79995771Y-106942172D01*
X80035297Y-107073285D01*
X80182793Y-107133555D01*
X80494707Y-107148069D01*
X80716821Y-107150464D01*
X80910965Y-107184793D01*
X80983179Y-107297746D01*
X80993834Y-107536279D01*
X80993533Y-107571636D01*
X80950513Y-107840306D01*
X80827458Y-107924489D01*
X80730436Y-107883315D01*
X80661083Y-107702655D01*
X80657650Y-107645391D01*
X80571895Y-107515681D01*
X80328332Y-107480821D01*
X80183632Y-107487443D01*
X80031394Y-107559940D01*
X79995581Y-107758113D01*
X79963017Y-107938985D01*
X79829205Y-108035406D01*
X79809159Y-108034093D01*
X79720902Y-107963801D01*
X79675607Y-107756330D01*
X79662830Y-107369904D01*
X79663158Y-107289718D01*
X79680731Y-106936691D01*
X79732598Y-106755511D01*
X79829205Y-106704401D01*
X79926227Y-106745575D01*
G37*
G36*
X80964100Y-112181260D02*
G01*
X80951919Y-112402787D01*
X80757663Y-112624928D01*
X80608638Y-112714077D01*
X80250437Y-112798857D01*
X79956110Y-112690362D01*
X79758489Y-112408626D01*
X79711997Y-112111607D01*
X80016310Y-112111607D01*
X80047347Y-112185709D01*
X80218430Y-112313072D01*
X80438997Y-112345564D01*
X80601704Y-112256596D01*
X80638546Y-112119041D01*
X80527064Y-111973923D01*
X80258194Y-111917502D01*
X80251557Y-111917520D01*
X80048631Y-111961854D01*
X80016310Y-112111607D01*
X79711997Y-112111607D01*
X79690408Y-111973683D01*
X79697965Y-111473834D01*
X80678650Y-111473834D01*
X81047629Y-111475743D01*
X81379118Y-111489179D01*
X81563180Y-111523891D01*
X81642393Y-111589510D01*
X81659336Y-111695668D01*
X81649601Y-111785771D01*
X81547561Y-111890390D01*
X81286508Y-111917502D01*
X81063033Y-111929710D01*
X80955637Y-112002049D01*
X80961162Y-112119041D01*
X80964100Y-112181260D01*
G37*
G36*
X80944230Y-108436735D02*
G01*
X80993834Y-108700908D01*
X80996123Y-108786804D01*
X81053292Y-108981368D01*
X81215668Y-109033659D01*
X81345031Y-109064539D01*
X81437502Y-109200035D01*
X81396329Y-109297057D01*
X81215668Y-109366410D01*
X81086305Y-109397290D01*
X80993834Y-109532786D01*
X80974509Y-109610376D01*
X80827458Y-109699161D01*
X80749868Y-109679836D01*
X80661083Y-109532786D01*
X80573272Y-109407165D01*
X80295057Y-109366410D01*
X80286850Y-109366377D01*
X79993779Y-109326325D01*
X79795930Y-109233310D01*
X79755257Y-109181488D01*
X79675841Y-108952256D01*
X79663858Y-108684023D01*
X79716061Y-108461190D01*
X79829205Y-108368157D01*
X79935558Y-108419476D01*
X79995581Y-108633583D01*
X80011119Y-108754321D01*
X80174802Y-108961682D01*
X80503779Y-109033659D01*
X80613821Y-108959906D01*
X80661083Y-108700908D01*
X80695372Y-108467364D01*
X80827458Y-108368157D01*
X80944230Y-108436735D01*
G37*
G36*
X80524778Y-120069904D02*
G01*
X80405222Y-120328532D01*
X80283971Y-120484144D01*
X80049841Y-120574829D01*
X79850500Y-120482851D01*
X79725170Y-120191964D01*
X79703745Y-119965533D01*
X79995581Y-119965533D01*
X80007014Y-120035998D01*
X80106498Y-120125362D01*
X80172161Y-120080743D01*
X80217415Y-119896982D01*
X80193800Y-119771114D01*
X80106498Y-119737152D01*
X80063179Y-119776691D01*
X79995581Y-119965533D01*
X79703745Y-119965533D01*
X79679511Y-119709423D01*
X79688349Y-119402197D01*
X79736543Y-119189500D01*
X79835556Y-119127109D01*
X79906202Y-119138575D01*
X79995581Y-119238026D01*
X79996976Y-119247718D01*
X80113965Y-119319522D01*
X80361607Y-119348943D01*
X80374048Y-119348984D01*
X80736261Y-119412307D01*
X80933913Y-119614092D01*
X80993834Y-119981170D01*
X80993622Y-120001515D01*
X80938167Y-120260508D01*
X80824358Y-120360482D01*
X80709857Y-120291138D01*
X80652326Y-120042174D01*
X80643570Y-119737152D01*
X80586511Y-119896982D01*
X80524778Y-120069904D01*
G37*
G36*
X81402090Y-112917068D02*
G01*
X81490347Y-112987359D01*
X81535642Y-113194830D01*
X81548419Y-113581257D01*
X81548419Y-114246759D01*
X80605624Y-114246759D01*
X79662830Y-114246759D01*
X79662830Y-113581257D01*
X79663158Y-113501072D01*
X79680731Y-113148044D01*
X79732598Y-112966865D01*
X79829205Y-112915755D01*
X79899772Y-112936050D01*
X79973807Y-113085901D01*
X79995581Y-113414882D01*
X79995665Y-113450738D01*
X80013233Y-113745744D01*
X80078786Y-113881351D01*
X80217415Y-113914008D01*
X80317560Y-113901319D01*
X80414434Y-113793361D01*
X80439249Y-113525799D01*
X80439550Y-113490442D01*
X80482570Y-113221772D01*
X80605624Y-113137589D01*
X80620777Y-113138291D01*
X80735922Y-113238672D01*
X80772000Y-113525799D01*
X80779251Y-113701053D01*
X80840941Y-113870583D01*
X80993834Y-113914008D01*
X81009770Y-113913818D01*
X81140884Y-113874292D01*
X81201154Y-113726796D01*
X81215668Y-113414882D01*
X81222433Y-113203182D01*
X81272383Y-112981076D01*
X81382044Y-112915755D01*
X81402090Y-112917068D01*
G37*
G36*
X79944666Y-116200984D02*
G01*
X80010836Y-116242357D01*
X80251261Y-116326031D01*
X80504470Y-116259000D01*
X80715941Y-116174880D01*
X80888136Y-116132349D01*
X80941957Y-116144709D01*
X80995208Y-116260788D01*
X80941173Y-116424608D01*
X80799729Y-116543678D01*
X80784830Y-116549389D01*
X80542042Y-116717542D01*
X80440947Y-116936497D01*
X80494666Y-116970744D01*
X80715529Y-117006013D01*
X81049293Y-117019685D01*
X81412389Y-117034070D01*
X81604568Y-117085726D01*
X81659336Y-117186061D01*
X81658810Y-117198151D01*
X81609045Y-117275128D01*
X81451442Y-117322289D01*
X81148092Y-117345953D01*
X80661083Y-117352436D01*
X80588540Y-117352349D01*
X80126677Y-117344054D01*
X79843711Y-117317787D01*
X79701732Y-117267229D01*
X79662830Y-117186061D01*
X79704003Y-117089038D01*
X79884664Y-117019685D01*
X80014182Y-116988911D01*
X80106498Y-116857212D01*
X80061329Y-116735066D01*
X79884664Y-116576017D01*
X79752336Y-116461382D01*
X79662830Y-116236807D01*
X79673910Y-116099773D01*
X79747966Y-116083374D01*
X79944666Y-116200984D01*
G37*
G36*
X81548419Y-123184652D02*
G01*
X81548419Y-123563790D01*
X80605624Y-123563790D01*
X79662830Y-123563790D01*
X79664528Y-123092393D01*
X79665213Y-123057371D01*
X80008174Y-123057371D01*
X80060947Y-123196833D01*
X80272873Y-123231039D01*
X80361487Y-123228177D01*
X80516279Y-123166298D01*
X80528070Y-123009205D01*
X80882917Y-123009205D01*
X80913797Y-123138568D01*
X81049293Y-123231039D01*
X81146315Y-123189865D01*
X81215668Y-123009205D01*
X81184788Y-122879842D01*
X81049293Y-122787371D01*
X80952270Y-122828544D01*
X80893562Y-122981476D01*
X80882917Y-123009205D01*
X80528070Y-123009205D01*
X80530151Y-122981476D01*
X80471227Y-122822533D01*
X80272873Y-122731912D01*
X80125783Y-122772807D01*
X80015596Y-122981476D01*
X80008174Y-123057371D01*
X79665213Y-123057371D01*
X79667602Y-122935281D01*
X79713606Y-122603682D01*
X79838606Y-122410871D01*
X80073095Y-122297520D01*
X80278257Y-122283920D01*
X80540447Y-122444900D01*
X80716010Y-122571271D01*
X80829959Y-122561491D01*
X80881219Y-122509920D01*
X81093568Y-122455946D01*
X81332392Y-122500088D01*
X81481094Y-122630067D01*
X81483035Y-122635283D01*
X81529280Y-122870649D01*
X81537725Y-123009205D01*
X81548419Y-123184652D01*
G37*
D13*
%TO.C,J2*%
X83980000Y-127800000D02*
X83980000Y-135420000D01*
X78010000Y-127800000D02*
X83980000Y-127800000D01*
X78020000Y-127810000D02*
X78770000Y-127810000D01*
X78020000Y-129610000D02*
X78020000Y-127810000D01*
X78020000Y-132110000D02*
X78020000Y-131110000D01*
X78770000Y-135410000D02*
X78020000Y-135410000D01*
X78020000Y-135410000D02*
X78020000Y-133610000D01*
X83980000Y-135420000D02*
X78010000Y-135420000D01*
X78010000Y-135420000D02*
X78010000Y-127800000D01*
D17*
%TO.C,SW2*%
X132114000Y-114679000D02*
X128050000Y-114679000D01*
X132114000Y-114249740D02*
X132114000Y-114679000D01*
X132114000Y-111631000D02*
X132114000Y-112060260D01*
X128050000Y-114679000D02*
X128050000Y-114249740D01*
X128050000Y-112060260D02*
X128050000Y-111631000D01*
X128050000Y-111631000D02*
X132114000Y-111631000D01*
%TD*%
%LPC*%
D12*
X90353679Y-83274114D02*
X90258441Y-83178876D01*
X90258441Y-83178876D02*
X90067965Y-83083638D01*
X90067965Y-83083638D02*
X89591774Y-83083638D01*
X89591774Y-83083638D02*
X89401298Y-83178876D01*
X89401298Y-83178876D02*
X89306060Y-83274114D01*
X89306060Y-83274114D02*
X89210822Y-83464590D01*
X89210822Y-83464590D02*
X89210822Y-83655066D01*
X89210822Y-83655066D02*
X89306060Y-83940780D01*
X89306060Y-83940780D02*
X90448917Y-85083638D01*
X90448917Y-85083638D02*
X89210822Y-85083638D01*
X87972727Y-83083638D02*
X87782250Y-83083638D01*
X87782250Y-83083638D02*
X87591774Y-83178876D01*
X87591774Y-83178876D02*
X87496536Y-83274114D01*
X87496536Y-83274114D02*
X87401298Y-83464590D01*
X87401298Y-83464590D02*
X87306060Y-83845542D01*
X87306060Y-83845542D02*
X87306060Y-84321733D01*
X87306060Y-84321733D02*
X87401298Y-84702685D01*
X87401298Y-84702685D02*
X87496536Y-84893161D01*
X87496536Y-84893161D02*
X87591774Y-84988400D01*
X87591774Y-84988400D02*
X87782250Y-85083638D01*
X87782250Y-85083638D02*
X87972727Y-85083638D01*
X87972727Y-85083638D02*
X88163203Y-84988400D01*
X88163203Y-84988400D02*
X88258441Y-84893161D01*
X88258441Y-84893161D02*
X88353679Y-84702685D01*
X88353679Y-84702685D02*
X88448917Y-84321733D01*
X88448917Y-84321733D02*
X88448917Y-83845542D01*
X88448917Y-83845542D02*
X88353679Y-83464590D01*
X88353679Y-83464590D02*
X88258441Y-83274114D01*
X88258441Y-83274114D02*
X88163203Y-83178876D01*
X88163203Y-83178876D02*
X87972727Y-83083638D01*
X85591774Y-83750304D02*
X85591774Y-85083638D01*
X86067965Y-82988400D02*
X86544155Y-84416971D01*
X86544155Y-84416971D02*
X85306060Y-84416971D01*
D13*
%TO.C,U12*%
X133180000Y-81610000D02*
X133180000Y-63610000D01*
D14*
%TO.C,G\u002A\u002A\u002A*%
G36*
X110835225Y-83669191D02*
G01*
X111225774Y-84059740D01*
X110840646Y-84445290D01*
X110743775Y-84541920D01*
X110649131Y-84635592D01*
X110567917Y-84715197D01*
X110504115Y-84776859D01*
X110461707Y-84816699D01*
X110444677Y-84830841D01*
X110429633Y-84818501D01*
X110388808Y-84780268D01*
X110326321Y-84719953D01*
X110246154Y-84641434D01*
X110152289Y-84548587D01*
X110048708Y-84445290D01*
X109663579Y-84059740D01*
X110054128Y-83669191D01*
X110444677Y-83278642D01*
X110835225Y-83669191D01*
G37*
G36*
X106952962Y-84218195D02*
G01*
X107012788Y-84384727D01*
X107130174Y-84656382D01*
X107260097Y-84893409D01*
X107401616Y-85094547D01*
X107553792Y-85258537D01*
X107715685Y-85384116D01*
X107886356Y-85470027D01*
X107916657Y-85479077D01*
X107996489Y-85494470D01*
X108098933Y-85507422D01*
X108211773Y-85516200D01*
X108448024Y-85528872D01*
X108633717Y-85851383D01*
X108687239Y-85945026D01*
X108740061Y-86039000D01*
X108781920Y-86115205D01*
X108809482Y-86167559D01*
X108819410Y-86189981D01*
X108812654Y-86193248D01*
X108772106Y-86198329D01*
X108701063Y-86202393D01*
X108606604Y-86205090D01*
X108495806Y-86206067D01*
X108172203Y-86206067D01*
X108178046Y-87763614D01*
X108179056Y-88029567D01*
X108180108Y-88286071D01*
X108181182Y-88506491D01*
X108182369Y-88693760D01*
X108183761Y-88850811D01*
X108185446Y-88980576D01*
X108187518Y-89085988D01*
X108190065Y-89169980D01*
X108193180Y-89235484D01*
X108196952Y-89285434D01*
X108201474Y-89322762D01*
X108206835Y-89350400D01*
X108213126Y-89371282D01*
X108220439Y-89388341D01*
X108228864Y-89404508D01*
X108261787Y-89457864D01*
X108349332Y-89557893D01*
X108450475Y-89629877D01*
X108508694Y-89659932D01*
X108417585Y-89713326D01*
X108319765Y-89792653D01*
X108242377Y-89900266D01*
X108195128Y-90023485D01*
X108193591Y-90033321D01*
X108189824Y-90086905D01*
X108186397Y-90179408D01*
X108183334Y-90308844D01*
X108180661Y-90473224D01*
X108178401Y-90670562D01*
X108176578Y-90898870D01*
X108175218Y-91156162D01*
X108174344Y-91440449D01*
X108173980Y-91749745D01*
X108173471Y-93386531D01*
X107742630Y-93787538D01*
X107311790Y-94188545D01*
X107277386Y-94097910D01*
X107247290Y-94032073D01*
X107177868Y-93916154D01*
X107082976Y-93783702D01*
X106967059Y-93640128D01*
X106834561Y-93490847D01*
X106689927Y-93341272D01*
X106537600Y-93196816D01*
X106483754Y-93146978D01*
X106402109Y-93067371D01*
X106327474Y-92990122D01*
X106262576Y-92918696D01*
X106210143Y-92856560D01*
X106172904Y-92807181D01*
X106153586Y-92774024D01*
X106154918Y-92760556D01*
X106179628Y-92770243D01*
X106230444Y-92806551D01*
X106299366Y-92857410D01*
X106369454Y-92896819D01*
X106436950Y-92916253D01*
X106516137Y-92921454D01*
X106532152Y-92921097D01*
X106642284Y-92901731D01*
X106745371Y-92857661D01*
X106824867Y-92795630D01*
X106826684Y-92793536D01*
X106833773Y-92782700D01*
X106839814Y-92766544D01*
X106844873Y-92742039D01*
X106849018Y-92706155D01*
X106852314Y-92655863D01*
X106854829Y-92588133D01*
X106856628Y-92499937D01*
X106857778Y-92388244D01*
X106858346Y-92250025D01*
X106858398Y-92082251D01*
X106858000Y-91881892D01*
X106857219Y-91645920D01*
X106856122Y-91371304D01*
X106850337Y-89987937D01*
X106790861Y-89886750D01*
X106733692Y-89809469D01*
X106627929Y-89721251D01*
X106524473Y-89656939D01*
X106595168Y-89620671D01*
X106660367Y-89577358D01*
X106737556Y-89503287D01*
X106800898Y-89418954D01*
X106838416Y-89338263D01*
X106840403Y-89327806D01*
X106845101Y-89272011D01*
X106849184Y-89174805D01*
X106852651Y-89036374D01*
X106855498Y-88856905D01*
X106857723Y-88636583D01*
X106859323Y-88375593D01*
X106860296Y-88074124D01*
X106860639Y-87732359D01*
X106860755Y-86206067D01*
X106708307Y-86206067D01*
X106555859Y-86206067D01*
X106282673Y-85867470D01*
X106009487Y-85528872D01*
X106435121Y-85523240D01*
X106860755Y-85517608D01*
X106861024Y-84731444D01*
X106861292Y-83945279D01*
X106952962Y-84218195D01*
G37*
G36*
X110875684Y-85508401D02*
G01*
X110901173Y-85546235D01*
X110945271Y-85612062D01*
X111005209Y-85701741D01*
X111078222Y-85811131D01*
X111161542Y-85936090D01*
X111252402Y-86072478D01*
X111628268Y-86636921D01*
X111578013Y-86701135D01*
X111533263Y-86747758D01*
X111443903Y-86815237D01*
X111334780Y-86877924D01*
X111218190Y-86928062D01*
X111111453Y-86965971D01*
X111111453Y-88107771D01*
X111111446Y-88275760D01*
X111111559Y-88507622D01*
X111112114Y-88703489D01*
X111113445Y-88866832D01*
X111115885Y-89001120D01*
X111119767Y-89109823D01*
X111125425Y-89196412D01*
X111133192Y-89264355D01*
X111143400Y-89317123D01*
X111156384Y-89358185D01*
X111172477Y-89391011D01*
X111192011Y-89419071D01*
X111215321Y-89445835D01*
X111242739Y-89474772D01*
X111256864Y-89488805D01*
X111322178Y-89541654D01*
X111387734Y-89580913D01*
X111466066Y-89616790D01*
X111381498Y-89654924D01*
X111375494Y-89657712D01*
X111281872Y-89720387D01*
X111198671Y-89808646D01*
X111140101Y-89907615D01*
X111138050Y-89913353D01*
X111132956Y-89936914D01*
X111128511Y-89974168D01*
X111124674Y-90027659D01*
X111121401Y-90099929D01*
X111118649Y-90193524D01*
X111116374Y-90310985D01*
X111114534Y-90454858D01*
X111113085Y-90627686D01*
X111111983Y-90832012D01*
X111111187Y-91070380D01*
X111110652Y-91345334D01*
X111110335Y-91659417D01*
X111109217Y-93342654D01*
X110688391Y-93742728D01*
X110674494Y-93755934D01*
X110565705Y-93858938D01*
X110467267Y-93951493D01*
X110383136Y-94029930D01*
X110317265Y-94090579D01*
X110273609Y-94129771D01*
X110256123Y-94143836D01*
X110253726Y-94142893D01*
X110237968Y-94118544D01*
X110218096Y-94071351D01*
X110201334Y-94030446D01*
X110153397Y-93941437D01*
X110083781Y-93838666D01*
X109990413Y-93719559D01*
X109871219Y-93581541D01*
X109724123Y-93422036D01*
X109547051Y-93238470D01*
X109543132Y-93234475D01*
X109396872Y-93084228D01*
X109277197Y-92958886D01*
X109184596Y-92859026D01*
X109119552Y-92785223D01*
X109082554Y-92738053D01*
X109074086Y-92718092D01*
X109094636Y-92725916D01*
X109144690Y-92762100D01*
X109161332Y-92775007D01*
X109222126Y-92820072D01*
X109267670Y-92847117D01*
X109311821Y-92863145D01*
X109368432Y-92875156D01*
X109424247Y-92880245D01*
X109532354Y-92868158D01*
X109635541Y-92832791D01*
X109716601Y-92778902D01*
X109777901Y-92720173D01*
X109777784Y-91364474D01*
X109777450Y-91061641D01*
X109776407Y-90777058D01*
X109774652Y-90533703D01*
X109772182Y-90331350D01*
X109768993Y-90169770D01*
X109765081Y-90048738D01*
X109760444Y-89968026D01*
X109755076Y-89927406D01*
X109729641Y-89873164D01*
X109684106Y-89807892D01*
X109627056Y-89741021D01*
X109567001Y-89681715D01*
X109512452Y-89639140D01*
X109471918Y-89622460D01*
X109461738Y-89621456D01*
X109460241Y-89611288D01*
X109496605Y-89588775D01*
X109590651Y-89524440D01*
X109677420Y-89436473D01*
X109738314Y-89341998D01*
X109739156Y-89340168D01*
X109746794Y-89321373D01*
X109753334Y-89298885D01*
X109758862Y-89269539D01*
X109763465Y-89230169D01*
X109767229Y-89177612D01*
X109770239Y-89108701D01*
X109772582Y-89020272D01*
X109774344Y-88909160D01*
X109775610Y-88772200D01*
X109776467Y-88606226D01*
X109777001Y-88408073D01*
X109777298Y-88174578D01*
X109777443Y-87902574D01*
X109777901Y-86546497D01*
X109723429Y-86517344D01*
X109717003Y-86513566D01*
X109670874Y-86477206D01*
X109611948Y-86421367D01*
X109551012Y-86357292D01*
X109498855Y-86296221D01*
X109466268Y-86249396D01*
X109462396Y-86239552D01*
X109467939Y-86227474D01*
X109494743Y-86220368D01*
X109549610Y-86216913D01*
X109639339Y-86215787D01*
X109644743Y-86215764D01*
X109745420Y-86213103D01*
X109821565Y-86204306D01*
X109889472Y-86186406D01*
X109965431Y-86156439D01*
X110083913Y-86098122D01*
X110261573Y-85989272D01*
X110451696Y-85850389D01*
X110649303Y-85684906D01*
X110675153Y-85662002D01*
X110750198Y-85596617D01*
X110811604Y-85544759D01*
X110853607Y-85511228D01*
X110870442Y-85500822D01*
X110875684Y-85508401D01*
G37*
G36*
X94321726Y-88203688D02*
G01*
X94327450Y-89345307D01*
X94390708Y-89447836D01*
X94449755Y-89524977D01*
X94562645Y-89615543D01*
X94671323Y-89680721D01*
X94606011Y-89707774D01*
X94543402Y-89739855D01*
X94442182Y-89826730D01*
X94366349Y-89945412D01*
X94317438Y-90050447D01*
X94317235Y-91492995D01*
X94317031Y-92935544D01*
X94374332Y-92949316D01*
X94504813Y-92999651D01*
X94623731Y-93085425D01*
X94720321Y-93199404D01*
X94789662Y-93335721D01*
X94826830Y-93488511D01*
X94839564Y-93592695D01*
X94798954Y-93519767D01*
X94767864Y-93468659D01*
X94696223Y-93385706D01*
X94612548Y-93336540D01*
X94509179Y-93315767D01*
X94396328Y-93317778D01*
X94279739Y-93339423D01*
X94277012Y-93340249D01*
X94230067Y-93356189D01*
X94151537Y-93384567D01*
X94045832Y-93423686D01*
X93917364Y-93471846D01*
X93770541Y-93527347D01*
X93609773Y-93588491D01*
X93439472Y-93653579D01*
X93264047Y-93720910D01*
X93087908Y-93788787D01*
X92915465Y-93855510D01*
X92751128Y-93919380D01*
X92599308Y-93978697D01*
X92464414Y-94031763D01*
X92350857Y-94076879D01*
X92263046Y-94112345D01*
X92205393Y-94136462D01*
X92182306Y-94147531D01*
X92156950Y-94162429D01*
X92123410Y-94161789D01*
X92108335Y-94137849D01*
X92107708Y-94130648D01*
X92092011Y-94080784D01*
X92058316Y-94005401D01*
X92010789Y-93911903D01*
X91953592Y-93807696D01*
X91890888Y-93700184D01*
X91826843Y-93596772D01*
X91765618Y-93504865D01*
X91711378Y-93431868D01*
X91633746Y-93341345D01*
X91428675Y-93144290D01*
X91199837Y-92976294D01*
X90952588Y-92840495D01*
X90692285Y-92740029D01*
X90424283Y-92678034D01*
X90264283Y-92653320D01*
X90251592Y-91883221D01*
X90250405Y-91812732D01*
X90246370Y-91603183D01*
X90241813Y-91429431D01*
X90236204Y-91286956D01*
X90229012Y-91171235D01*
X90219709Y-91077750D01*
X90207764Y-91001978D01*
X90192648Y-90939400D01*
X90173831Y-90885494D01*
X90150784Y-90835740D01*
X90122975Y-90785617D01*
X90120847Y-90782042D01*
X90055158Y-90699440D01*
X89968535Y-90624924D01*
X89878803Y-90573944D01*
X89873811Y-90570360D01*
X89893019Y-90568784D01*
X89941313Y-90573315D01*
X90042375Y-90597494D01*
X90160102Y-90644707D01*
X90275032Y-90706919D01*
X90371015Y-90776491D01*
X90398820Y-90803695D01*
X90454315Y-90864996D01*
X90523987Y-90947126D01*
X90601656Y-91042752D01*
X90681141Y-91144537D01*
X90734840Y-91213508D01*
X90818912Y-91317242D01*
X90899591Y-91412229D01*
X90969785Y-91490190D01*
X91022398Y-91542845D01*
X91062638Y-91577211D01*
X91215232Y-91682141D01*
X91381116Y-91762486D01*
X91549910Y-91813887D01*
X91711234Y-91831990D01*
X91805458Y-91831990D01*
X91727919Y-91884679D01*
X91726511Y-91885637D01*
X91680191Y-91919536D01*
X91644507Y-91954123D01*
X91617967Y-91995254D01*
X91599082Y-92048782D01*
X91586361Y-92120563D01*
X91578314Y-92216452D01*
X91573451Y-92342305D01*
X91570280Y-92503975D01*
X91570271Y-92504579D01*
X91568454Y-92654882D01*
X91568425Y-92767967D01*
X91570389Y-92848244D01*
X91574549Y-92900125D01*
X91581111Y-92928019D01*
X91590277Y-92936337D01*
X91591076Y-92936279D01*
X91620124Y-92927830D01*
X91682001Y-92906515D01*
X91771195Y-92874430D01*
X91882191Y-92833666D01*
X92009476Y-92786318D01*
X92147538Y-92734478D01*
X92290864Y-92680241D01*
X92433940Y-92625699D01*
X92571254Y-92572945D01*
X92697292Y-92524073D01*
X92806541Y-92481175D01*
X92893488Y-92446347D01*
X92952621Y-92421679D01*
X92978425Y-92409267D01*
X92980554Y-92406582D01*
X92985763Y-92388149D01*
X92990120Y-92351420D01*
X92993668Y-92293796D01*
X92996447Y-92212681D01*
X92998497Y-92105477D01*
X92999861Y-91969587D01*
X93000578Y-91802416D01*
X93000690Y-91601364D01*
X93000238Y-91363836D01*
X92999262Y-91087234D01*
X92993897Y-89785247D01*
X92845552Y-89747576D01*
X92795197Y-89733623D01*
X92584188Y-89650458D01*
X92373511Y-89528486D01*
X92166508Y-89369879D01*
X91966522Y-89176806D01*
X91954304Y-89163562D01*
X91894802Y-89097043D01*
X91816697Y-89007551D01*
X91726200Y-88902295D01*
X91629520Y-88788485D01*
X91532865Y-88673329D01*
X91411974Y-88529984D01*
X91249584Y-88344170D01*
X91104594Y-88187826D01*
X90973619Y-88057822D01*
X90853274Y-87951029D01*
X90740175Y-87864315D01*
X90630938Y-87794552D01*
X90522177Y-87738608D01*
X90514875Y-87735308D01*
X90404294Y-87692014D01*
X90286919Y-87656257D01*
X90177336Y-87631939D01*
X90090130Y-87622966D01*
X90018498Y-87622966D01*
X90056588Y-87597653D01*
X91567307Y-87597653D01*
X91567708Y-87650108D01*
X91576720Y-87862890D01*
X91599702Y-88047668D01*
X91639589Y-88214539D01*
X91699311Y-88373600D01*
X91781803Y-88534948D01*
X91889995Y-88708680D01*
X91917006Y-88748242D01*
X92050892Y-88921724D01*
X92203075Y-89088150D01*
X92366516Y-89241311D01*
X92534179Y-89374999D01*
X92699026Y-89483007D01*
X92854021Y-89559125D01*
X92900901Y-89576869D01*
X92955065Y-89595307D01*
X92984250Y-89602457D01*
X92987222Y-89592193D01*
X92991070Y-89543051D01*
X92994468Y-89454586D01*
X92997396Y-89328175D01*
X92999836Y-89165195D01*
X93001767Y-88967024D01*
X93003170Y-88735040D01*
X93004026Y-88470619D01*
X93004316Y-88175140D01*
X93004259Y-88026074D01*
X93003937Y-87793751D01*
X93003352Y-87576138D01*
X93002527Y-87376604D01*
X93001489Y-87198520D01*
X93000260Y-87045257D01*
X92998866Y-86920185D01*
X92997331Y-86826675D01*
X92995680Y-86768097D01*
X92993937Y-86747822D01*
X92991503Y-86748422D01*
X92959821Y-86759684D01*
X92896275Y-86783599D01*
X92806237Y-86818064D01*
X92695077Y-86860979D01*
X92568166Y-86910239D01*
X92430874Y-86963742D01*
X92288571Y-87019386D01*
X92146628Y-87075069D01*
X92010417Y-87128688D01*
X91885306Y-87178140D01*
X91776668Y-87221323D01*
X91689872Y-87256135D01*
X91630289Y-87280473D01*
X91603290Y-87292234D01*
X91594124Y-87298428D01*
X91582050Y-87315882D01*
X91574136Y-87347708D01*
X91569576Y-87400731D01*
X91567568Y-87481772D01*
X91567307Y-87597653D01*
X90056588Y-87597653D01*
X90089298Y-87575915D01*
X90109228Y-87560563D01*
X90163325Y-87502836D01*
X90206982Y-87436061D01*
X90217845Y-87413574D01*
X90233814Y-87371933D01*
X90244274Y-87324765D01*
X90250353Y-87263036D01*
X90253174Y-87177714D01*
X90253865Y-87059764D01*
X90253865Y-86776270D01*
X90143230Y-86741395D01*
X90058403Y-86706242D01*
X89939051Y-86622638D01*
X89843108Y-86510508D01*
X89775444Y-86376095D01*
X89740927Y-86225641D01*
X89729100Y-86112301D01*
X89775716Y-86202561D01*
X89838802Y-86289077D01*
X89932429Y-86361967D01*
X90039340Y-86403558D01*
X90070304Y-86406574D01*
X90146405Y-86401553D01*
X90233759Y-86384628D01*
X90243350Y-86381914D01*
X90296052Y-86364473D01*
X90379854Y-86334744D01*
X90490374Y-86294407D01*
X90623228Y-86245146D01*
X90774034Y-86188642D01*
X90938409Y-86126576D01*
X91111969Y-86060630D01*
X91290333Y-85992487D01*
X91469118Y-85923827D01*
X91643940Y-85856333D01*
X91810416Y-85791686D01*
X91964165Y-85731569D01*
X92100803Y-85677662D01*
X92215947Y-85631648D01*
X92305215Y-85595208D01*
X92364223Y-85570025D01*
X92388590Y-85557779D01*
X92414471Y-85541528D01*
X92448806Y-85549415D01*
X92472066Y-85595165D01*
X92475889Y-85607757D01*
X92497208Y-85662159D01*
X92530356Y-85736720D01*
X92569968Y-85819160D01*
X92595756Y-85869606D01*
X92758633Y-86140535D01*
X92945653Y-86377530D01*
X93156687Y-86580498D01*
X93391607Y-86749341D01*
X93650281Y-86883965D01*
X93932582Y-86984274D01*
X94238379Y-87050172D01*
X94316002Y-87062069D01*
X94321583Y-88175140D01*
X94321726Y-88203688D01*
G37*
G36*
X105245907Y-92057041D02*
G01*
X105245907Y-92917613D01*
X105370928Y-92967812D01*
X105430008Y-92995089D01*
X105554364Y-93083226D01*
X105649593Y-93200838D01*
X105714408Y-93346505D01*
X105734620Y-93417897D01*
X105750000Y-93484787D01*
X105755573Y-93527171D01*
X105753328Y-93550543D01*
X105743744Y-93547509D01*
X105721785Y-93509348D01*
X105693905Y-93462287D01*
X105611304Y-93368746D01*
X105512841Y-93310573D01*
X105402588Y-93290562D01*
X105354520Y-93295517D01*
X105280084Y-93309868D01*
X105198761Y-93330325D01*
X105196858Y-93330871D01*
X105147588Y-93346997D01*
X105066904Y-93375570D01*
X104959208Y-93414896D01*
X104828901Y-93463281D01*
X104680384Y-93519031D01*
X104518060Y-93580452D01*
X104346329Y-93645850D01*
X104169594Y-93713530D01*
X103992255Y-93781799D01*
X103818714Y-93848961D01*
X103653373Y-93913324D01*
X103500633Y-93973193D01*
X103364896Y-94026874D01*
X103250563Y-94072673D01*
X103162036Y-94108895D01*
X103103716Y-94133846D01*
X103080005Y-94145833D01*
X103066191Y-94157840D01*
X103049936Y-94160477D01*
X103033194Y-94141356D01*
X103011533Y-94094620D01*
X102980518Y-94014414D01*
X102957215Y-93956363D01*
X102865871Y-93771175D01*
X102749948Y-93583181D01*
X102617823Y-93406421D01*
X102498437Y-93261820D01*
X102054938Y-93718972D01*
X102010996Y-93764104D01*
X101902447Y-93874102D01*
X101806275Y-93969421D01*
X101725747Y-94046955D01*
X101664126Y-94103597D01*
X101624678Y-94136240D01*
X101610667Y-94141776D01*
X101610188Y-94135996D01*
X101594021Y-94084945D01*
X101558675Y-94011146D01*
X101509185Y-93923607D01*
X101450586Y-93831333D01*
X101387913Y-93743331D01*
X101356524Y-93704912D01*
X101294815Y-93634712D01*
X101213091Y-93545222D01*
X101116602Y-93442104D01*
X101010600Y-93331021D01*
X100900335Y-93217634D01*
X100861484Y-93178017D01*
X100728732Y-93041405D01*
X100625077Y-92932341D01*
X100549720Y-92849813D01*
X100501860Y-92792811D01*
X100480696Y-92760325D01*
X100485428Y-92751343D01*
X100515255Y-92764856D01*
X100569376Y-92799853D01*
X100621986Y-92833797D01*
X100684304Y-92868648D01*
X100728345Y-92887115D01*
X100754000Y-92891983D01*
X100854280Y-92890795D01*
X100963060Y-92865032D01*
X101063798Y-92818099D01*
X101161904Y-92757447D01*
X101167267Y-91417164D01*
X101167527Y-91347696D01*
X101167849Y-91206887D01*
X102485038Y-91206887D01*
X102485101Y-91363235D01*
X102485493Y-91620762D01*
X102486217Y-91864144D01*
X102487246Y-92090323D01*
X102488553Y-92296239D01*
X102490109Y-92478834D01*
X102491887Y-92635049D01*
X102493859Y-92761825D01*
X102495998Y-92856105D01*
X102498276Y-92914828D01*
X102500665Y-92934936D01*
X102519082Y-92928771D01*
X102572479Y-92909080D01*
X102656175Y-92877532D01*
X102765668Y-92835843D01*
X102896456Y-92785727D01*
X103044036Y-92728899D01*
X103203906Y-92667074D01*
X103891518Y-92400612D01*
X103896970Y-91570235D01*
X103898110Y-91398476D01*
X103899062Y-91211383D01*
X103898896Y-91057340D01*
X103897027Y-90931497D01*
X103892866Y-90829007D01*
X103885829Y-90745021D01*
X103875328Y-90674692D01*
X103860777Y-90613171D01*
X103841589Y-90555610D01*
X103817178Y-90497162D01*
X103786957Y-90432977D01*
X103750340Y-90358209D01*
X103710480Y-90281669D01*
X103588173Y-90089899D01*
X103445758Y-89917878D01*
X103287874Y-89769139D01*
X103119161Y-89647217D01*
X102944256Y-89555645D01*
X102767800Y-89497956D01*
X102594431Y-89477684D01*
X102485038Y-89477437D01*
X102485038Y-91206887D01*
X101167849Y-91206887D01*
X101168186Y-91059654D01*
X101168058Y-90802734D01*
X101167160Y-90578444D01*
X101165509Y-90388289D01*
X101163121Y-90233776D01*
X101160012Y-90116412D01*
X101156200Y-90037703D01*
X101151701Y-89999156D01*
X101146978Y-89983090D01*
X101093056Y-89872002D01*
X101011135Y-89775451D01*
X100912147Y-89706778D01*
X100814920Y-89659712D01*
X100895809Y-89623496D01*
X100952938Y-89589809D01*
X101035424Y-89515822D01*
X101104781Y-89425817D01*
X101148140Y-89334529D01*
X101150874Y-89322142D01*
X101156156Y-89274719D01*
X101160633Y-89197578D01*
X101164335Y-89089011D01*
X101167294Y-88947312D01*
X101169541Y-88770773D01*
X101171107Y-88557687D01*
X101172024Y-88306346D01*
X101172322Y-88015043D01*
X101172322Y-86776270D01*
X101061688Y-86741395D01*
X100976861Y-86706242D01*
X100857509Y-86622638D01*
X100761566Y-86510508D01*
X100693901Y-86376095D01*
X100659385Y-86225641D01*
X100647558Y-86112301D01*
X100694174Y-86202561D01*
X100757393Y-86289208D01*
X100850913Y-86361994D01*
X100957591Y-86403513D01*
X100983192Y-86406375D01*
X101061203Y-86401151D01*
X101155540Y-86381207D01*
X101170133Y-86376746D01*
X101228147Y-86356820D01*
X101318109Y-86324409D01*
X101435294Y-86281315D01*
X101574974Y-86229342D01*
X101732423Y-86170292D01*
X101902914Y-86105966D01*
X102081721Y-86038168D01*
X102264115Y-85968700D01*
X102445372Y-85899364D01*
X102620763Y-85831963D01*
X102785563Y-85768298D01*
X102935043Y-85710173D01*
X103064479Y-85659390D01*
X103169142Y-85617751D01*
X103244306Y-85587059D01*
X103285245Y-85569115D01*
X103316302Y-85554335D01*
X103356014Y-85542142D01*
X103376900Y-85554798D01*
X103390524Y-85595165D01*
X103408235Y-85646507D01*
X103445078Y-85729953D01*
X103494694Y-85830182D01*
X103551983Y-85937350D01*
X103611849Y-86041616D01*
X103669192Y-86133138D01*
X103677407Y-86145375D01*
X103819863Y-86327650D01*
X103991568Y-86501823D01*
X104182778Y-86659787D01*
X104383750Y-86793439D01*
X104584739Y-86894673D01*
X104686352Y-86932559D01*
X104838590Y-86979085D01*
X105001368Y-87019755D01*
X105157351Y-87049874D01*
X105235489Y-87062262D01*
X105235832Y-87212384D01*
X105238365Y-87275518D01*
X105263321Y-87400449D01*
X105316628Y-87498900D01*
X105400372Y-87575467D01*
X105470856Y-87622966D01*
X105389637Y-87623274D01*
X105342452Y-87626378D01*
X105260955Y-87637788D01*
X105176626Y-87654651D01*
X105168801Y-87656518D01*
X105045374Y-87693013D01*
X104931246Y-87742438D01*
X104821443Y-87808680D01*
X104710993Y-87895628D01*
X104594922Y-88007171D01*
X104468254Y-88147195D01*
X104326018Y-88319590D01*
X104282507Y-88373427D01*
X104152540Y-88524765D01*
X104035793Y-88643604D01*
X103927727Y-88733388D01*
X103823802Y-88797564D01*
X103719480Y-88839575D01*
X103610222Y-88862866D01*
X103516457Y-88875353D01*
X103578967Y-88840531D01*
X103614314Y-88819059D01*
X103722445Y-88727057D01*
X103801212Y-88615712D01*
X103817538Y-88582297D01*
X103839986Y-88527551D01*
X103858492Y-88466967D01*
X103873521Y-88396066D01*
X103885538Y-88310368D01*
X103895008Y-88205395D01*
X103902396Y-88076666D01*
X103908168Y-87919703D01*
X103912789Y-87730026D01*
X103916722Y-87503155D01*
X103918938Y-87331049D01*
X103920220Y-87172141D01*
X103920579Y-87031738D01*
X103920037Y-86914473D01*
X103918615Y-86824977D01*
X103916334Y-86767883D01*
X103913217Y-86747822D01*
X103911509Y-86748169D01*
X103881561Y-86758513D01*
X103819409Y-86781673D01*
X103730439Y-86815544D01*
X103620033Y-86858017D01*
X103493574Y-86906988D01*
X103356446Y-86960350D01*
X103214031Y-87015995D01*
X103071713Y-87071817D01*
X102934875Y-87125710D01*
X102808900Y-87175568D01*
X102699172Y-87219283D01*
X102611073Y-87254749D01*
X102549987Y-87279860D01*
X102521297Y-87292509D01*
X102520880Y-87292735D01*
X102512403Y-87299608D01*
X102505397Y-87312441D01*
X102499752Y-87334805D01*
X102495353Y-87370271D01*
X102492090Y-87422410D01*
X102489848Y-87494794D01*
X102488517Y-87590994D01*
X102487983Y-87714581D01*
X102488134Y-87869126D01*
X102488858Y-88058200D01*
X102490041Y-88285376D01*
X102495456Y-89258651D01*
X102682987Y-89271588D01*
X102787792Y-89282177D01*
X102905062Y-89304056D01*
X103019997Y-89338459D01*
X103137092Y-89387853D01*
X103260844Y-89454704D01*
X103395750Y-89541480D01*
X103546306Y-89650647D01*
X103717009Y-89784672D01*
X103912355Y-89946021D01*
X104063378Y-90070861D01*
X104258942Y-90224002D01*
X104436714Y-90350755D01*
X104602421Y-90453993D01*
X104761789Y-90536591D01*
X104920541Y-90601423D01*
X105084404Y-90651362D01*
X105259103Y-90689283D01*
X105450363Y-90718060D01*
X105550635Y-90730584D01*
X105464210Y-90824345D01*
X105416622Y-90883718D01*
X105359239Y-90970458D01*
X105311846Y-91057287D01*
X105245907Y-91196469D01*
X105245907Y-91211383D01*
X105245907Y-92057041D01*
G37*
G36*
X96706501Y-85545981D02*
G01*
X96733746Y-85582419D01*
X96779421Y-85646962D01*
X96840714Y-85735534D01*
X96914811Y-85844058D01*
X96998900Y-85968457D01*
X97090168Y-86104653D01*
X97097526Y-86115680D01*
X97199815Y-86269346D01*
X97281048Y-86392518D01*
X97343387Y-86488969D01*
X97388996Y-86562474D01*
X97420041Y-86616805D01*
X97438685Y-86655736D01*
X97447092Y-86683040D01*
X97447426Y-86702490D01*
X97441852Y-86717861D01*
X97403760Y-86765286D01*
X97336242Y-86823661D01*
X97250643Y-86883879D01*
X97157364Y-86938652D01*
X97066802Y-86980692D01*
X96942462Y-87028906D01*
X96942462Y-88190661D01*
X96942504Y-88337706D01*
X96942711Y-88545010D01*
X96943077Y-88736786D01*
X96943586Y-88909299D01*
X96944219Y-89058812D01*
X96944961Y-89181593D01*
X96945795Y-89273905D01*
X96946704Y-89332013D01*
X96947671Y-89352183D01*
X96947698Y-89352180D01*
X96968225Y-89344530D01*
X97023120Y-89323347D01*
X97108047Y-89290323D01*
X97218668Y-89247151D01*
X97350647Y-89195523D01*
X97499647Y-89137132D01*
X97661330Y-89073671D01*
X98369779Y-88795393D01*
X98362012Y-87708027D01*
X98354244Y-86620662D01*
X98177209Y-86443627D01*
X98175209Y-86441626D01*
X98107799Y-86372952D01*
X98053813Y-86315646D01*
X98018693Y-86275644D01*
X98007881Y-86258886D01*
X98016822Y-86257395D01*
X98057030Y-86260608D01*
X98116841Y-86270096D01*
X98188347Y-86277931D01*
X98338102Y-86265427D01*
X98503088Y-86218008D01*
X98680623Y-86136997D01*
X98868029Y-86023716D01*
X99062626Y-85879484D01*
X99261732Y-85705624D01*
X99334897Y-85639603D01*
X99396864Y-85588785D01*
X99441359Y-85558013D01*
X99462319Y-85551933D01*
X99463756Y-85553759D01*
X99483075Y-85581451D01*
X99521185Y-85637535D01*
X99574657Y-85716869D01*
X99640060Y-85814309D01*
X99713966Y-85924713D01*
X99792943Y-86042938D01*
X99873563Y-86163841D01*
X99952394Y-86282279D01*
X100026007Y-86393110D01*
X100090971Y-86491190D01*
X100143858Y-86571378D01*
X100181237Y-86628529D01*
X100199677Y-86657502D01*
X100202687Y-86677535D01*
X100181029Y-86721509D01*
X100132175Y-86775372D01*
X100062480Y-86833989D01*
X99978298Y-86892226D01*
X99885982Y-86944948D01*
X99791888Y-86987021D01*
X99692913Y-87024362D01*
X99692913Y-88177971D01*
X99692913Y-88202922D01*
X99692989Y-88447975D01*
X99693264Y-88654867D01*
X99693841Y-88826811D01*
X99694822Y-88967021D01*
X99696308Y-89078709D01*
X99698400Y-89165087D01*
X99701201Y-89229369D01*
X99704811Y-89274768D01*
X99709332Y-89304496D01*
X99714866Y-89321766D01*
X99721514Y-89329790D01*
X99729377Y-89331783D01*
X99758104Y-89335512D01*
X99830765Y-89361581D01*
X99912972Y-89406164D01*
X99991721Y-89461696D01*
X100054008Y-89520613D01*
X100062167Y-89530468D01*
X100125193Y-89629410D01*
X100172661Y-89744429D01*
X100175591Y-89753963D01*
X100202672Y-89850092D01*
X100213384Y-89908414D01*
X100207608Y-89929456D01*
X100185224Y-89913747D01*
X100146112Y-89861816D01*
X100099776Y-89801503D01*
X100017517Y-89730768D01*
X99923233Y-89694737D01*
X99811097Y-89691652D01*
X99675283Y-89719754D01*
X99658101Y-89724970D01*
X99592826Y-89746835D01*
X99504354Y-89778285D01*
X99399613Y-89816671D01*
X99285531Y-89859345D01*
X99169038Y-89903657D01*
X99057061Y-89946958D01*
X98956530Y-89986601D01*
X98874373Y-90019936D01*
X98817519Y-90044314D01*
X98792896Y-90057087D01*
X98794223Y-90064982D01*
X98820552Y-90093977D01*
X98871986Y-90138478D01*
X98942306Y-90193903D01*
X99025294Y-90255672D01*
X99114729Y-90319201D01*
X99204392Y-90379909D01*
X99288064Y-90433214D01*
X99359525Y-90474534D01*
X99365144Y-90477509D01*
X99462868Y-90523448D01*
X99569044Y-90565033D01*
X99661658Y-90593591D01*
X99666067Y-90594667D01*
X99741312Y-90613106D01*
X99801360Y-90627954D01*
X99833561Y-90636083D01*
X99836707Y-90639436D01*
X99841704Y-90658717D01*
X99845973Y-90697180D01*
X99849559Y-90757325D01*
X99852512Y-90841650D01*
X99854880Y-90952654D01*
X99856709Y-91092836D01*
X99858049Y-91264694D01*
X99858946Y-91470729D01*
X99859450Y-91713438D01*
X99859607Y-91995320D01*
X99859607Y-93347654D01*
X99427244Y-93755422D01*
X99404238Y-93777116D01*
X99294849Y-93880180D01*
X99196559Y-93972643D01*
X99113209Y-94050904D01*
X99048639Y-94111360D01*
X99006690Y-94150408D01*
X98991200Y-94164448D01*
X98983944Y-94152795D01*
X98963748Y-94112367D01*
X98935831Y-94052805D01*
X98927664Y-94035265D01*
X98883562Y-93950046D01*
X98830779Y-93864455D01*
X98765619Y-93773887D01*
X98684386Y-93673735D01*
X98583382Y-93559395D01*
X98458911Y-93426260D01*
X98307276Y-93269726D01*
X98305399Y-93267810D01*
X98157582Y-93115980D01*
X98038670Y-92991444D01*
X97947409Y-92892768D01*
X97882544Y-92818517D01*
X97842823Y-92767257D01*
X97826990Y-92737553D01*
X97833794Y-92727970D01*
X97857596Y-92740102D01*
X97892514Y-92772586D01*
X97916248Y-92795183D01*
X97994394Y-92844432D01*
X98087213Y-92880163D01*
X98175683Y-92894206D01*
X98247284Y-92888511D01*
X98343301Y-92858010D01*
X98447917Y-92796900D01*
X98526055Y-92743139D01*
X98526055Y-91452690D01*
X98526019Y-91221891D01*
X98525836Y-90991437D01*
X98525421Y-90797043D01*
X98524687Y-90635699D01*
X98523549Y-90504396D01*
X98521921Y-90400123D01*
X98519717Y-90319872D01*
X98516852Y-90260631D01*
X98513238Y-90219392D01*
X98508791Y-90193146D01*
X98503425Y-90178881D01*
X98497053Y-90173589D01*
X98489591Y-90174259D01*
X98471920Y-90180672D01*
X98417968Y-90200893D01*
X98333520Y-90232837D01*
X98223354Y-90274688D01*
X98092251Y-90324627D01*
X97944990Y-90380840D01*
X97786350Y-90441511D01*
X97119574Y-90696744D01*
X97109156Y-92030574D01*
X97098737Y-93364404D01*
X96673016Y-93762351D01*
X96247294Y-94160299D01*
X96170263Y-94006964D01*
X96142674Y-93954637D01*
X96093816Y-93872976D01*
X96034864Y-93787659D01*
X95962404Y-93694573D01*
X95873024Y-93589607D01*
X95763314Y-93468650D01*
X95629859Y-93327592D01*
X95469249Y-93162319D01*
X95374914Y-93065374D01*
X95281923Y-92968131D01*
X95202872Y-92883678D01*
X95141624Y-92816203D01*
X95102043Y-92769895D01*
X95087991Y-92748941D01*
X95090868Y-92744264D01*
X95115019Y-92752041D01*
X95155710Y-92781367D01*
X95165367Y-92789255D01*
X95229267Y-92833723D01*
X95290480Y-92866566D01*
X95316736Y-92876166D01*
X95430229Y-92892950D01*
X95549155Y-92878166D01*
X95660118Y-92834757D01*
X95749721Y-92765667D01*
X95796766Y-92714519D01*
X95791394Y-91446728D01*
X95786022Y-90178937D01*
X95692257Y-90148066D01*
X95630330Y-90124001D01*
X95501543Y-90046464D01*
X95397330Y-89943431D01*
X95323210Y-89821157D01*
X95284699Y-89685901D01*
X95281411Y-89662346D01*
X95271258Y-89596642D01*
X95262743Y-89550365D01*
X95263870Y-89541935D01*
X95278975Y-89560050D01*
X95305553Y-89605670D01*
X95324570Y-89638094D01*
X95370170Y-89701605D01*
X95413066Y-89746248D01*
X95430694Y-89758928D01*
X95514043Y-89799520D01*
X95605620Y-89821644D01*
X95686267Y-89820117D01*
X95709181Y-89813143D01*
X95766534Y-89793254D01*
X95849794Y-89763222D01*
X95952460Y-89725498D01*
X96068028Y-89682535D01*
X96189997Y-89636783D01*
X96311864Y-89590693D01*
X96427125Y-89546717D01*
X96529280Y-89507305D01*
X96611824Y-89474909D01*
X96668255Y-89451981D01*
X96692072Y-89440971D01*
X96687231Y-89429777D01*
X96658014Y-89398671D01*
X96610349Y-89356238D01*
X96489318Y-89256395D01*
X96336170Y-89135564D01*
X96203754Y-89039220D01*
X96087095Y-88964239D01*
X95981218Y-88907500D01*
X95881149Y-88865880D01*
X95781913Y-88836256D01*
X95636105Y-88800461D01*
X95624307Y-87697840D01*
X95621954Y-87482338D01*
X95619482Y-87273333D01*
X95617086Y-87099696D01*
X95614616Y-86958072D01*
X95611923Y-86845104D01*
X95608856Y-86757438D01*
X95605267Y-86691718D01*
X95601005Y-86644589D01*
X95595922Y-86612695D01*
X95589867Y-86592680D01*
X95582692Y-86581189D01*
X95574245Y-86574866D01*
X95550190Y-86558265D01*
X95498780Y-86513511D01*
X95437647Y-86453974D01*
X95376874Y-86389999D01*
X95326543Y-86331933D01*
X95296738Y-86290123D01*
X95284758Y-86266055D01*
X95286841Y-86251655D01*
X95320616Y-86260230D01*
X95353148Y-86266914D01*
X95419803Y-86272800D01*
X95496967Y-86274010D01*
X95607121Y-86261676D01*
X95768216Y-86214805D01*
X95941656Y-86135294D01*
X96123220Y-86025472D01*
X96308692Y-85887663D01*
X96493853Y-85724195D01*
X96505163Y-85713404D01*
X96577511Y-85645392D01*
X96638159Y-85590075D01*
X96681035Y-85552894D01*
X96700072Y-85539291D01*
X96706501Y-85545981D01*
G37*
G36*
X117551978Y-84631446D02*
G01*
X117408593Y-84753929D01*
X117357351Y-84798345D01*
X117250367Y-84892961D01*
X117152838Y-84981656D01*
X117070371Y-85059203D01*
X117008573Y-85120373D01*
X116973054Y-85159940D01*
X116961784Y-85174683D01*
X116941173Y-85201915D01*
X116923062Y-85228277D01*
X116907287Y-85256429D01*
X116893689Y-85289028D01*
X116882106Y-85328734D01*
X116872377Y-85378206D01*
X116864340Y-85440103D01*
X116857834Y-85517083D01*
X116852698Y-85611806D01*
X116848770Y-85726931D01*
X116845889Y-85865117D01*
X116843894Y-86029022D01*
X116842623Y-86221306D01*
X116841916Y-86444627D01*
X116841610Y-86701645D01*
X116841545Y-86995019D01*
X116841559Y-87327407D01*
X116841619Y-87555697D01*
X116841952Y-87873173D01*
X116842603Y-88152341D01*
X116843599Y-88395236D01*
X116844965Y-88603897D01*
X116846729Y-88780360D01*
X116848918Y-88926663D01*
X116851559Y-89044842D01*
X116854677Y-89136935D01*
X116858300Y-89204980D01*
X116862455Y-89251012D01*
X116867168Y-89277070D01*
X116878577Y-89308226D01*
X116935759Y-89402897D01*
X117019252Y-89492370D01*
X117118220Y-89566337D01*
X117221830Y-89614491D01*
X117276108Y-89632921D01*
X117323429Y-89652795D01*
X117341641Y-89665981D01*
X117325794Y-89678653D01*
X117280349Y-89700535D01*
X117215681Y-89726148D01*
X117101531Y-89779032D01*
X116983060Y-89869944D01*
X116897633Y-89985964D01*
X116893671Y-89993444D01*
X116883481Y-90014628D01*
X116875060Y-90038148D01*
X116868209Y-90067938D01*
X116862729Y-90107931D01*
X116858418Y-90162062D01*
X116855079Y-90234262D01*
X116852511Y-90328468D01*
X116850515Y-90448611D01*
X116848994Y-90589040D01*
X116848890Y-90598626D01*
X116847437Y-90782446D01*
X116845957Y-91004006D01*
X116839937Y-91936728D01*
X116950141Y-91926665D01*
X117072216Y-91915969D01*
X117188994Y-91907519D01*
X117286335Y-91903508D01*
X117376162Y-91903737D01*
X117470400Y-91908007D01*
X117580972Y-91916118D01*
X117886215Y-91956593D01*
X118179448Y-92030141D01*
X118445953Y-92135300D01*
X118685313Y-92271739D01*
X118897113Y-92439128D01*
X119080939Y-92637137D01*
X119236373Y-92865434D01*
X119363001Y-93123689D01*
X119460407Y-93411572D01*
X119479871Y-93486304D01*
X119495620Y-93559932D01*
X119506130Y-93633392D01*
X119512487Y-93717140D01*
X119515776Y-93821636D01*
X119517084Y-93957338D01*
X119517347Y-94044669D01*
X119516676Y-94151474D01*
X119513804Y-94231084D01*
X119507717Y-94292299D01*
X119497406Y-94343924D01*
X119481858Y-94394760D01*
X119460062Y-94453611D01*
X119458056Y-94458814D01*
X119352858Y-94684259D01*
X119223392Y-94882650D01*
X119072458Y-95050860D01*
X118902851Y-95185758D01*
X118717371Y-95284216D01*
X118674960Y-95301063D01*
X118605462Y-95324716D01*
X118569462Y-95330995D01*
X118568476Y-95320967D01*
X118604019Y-95295695D01*
X118677603Y-95256245D01*
X118824002Y-95166551D01*
X118973098Y-95038521D01*
X119101549Y-94888943D01*
X119199002Y-94728298D01*
X119267605Y-94567329D01*
X119314489Y-94406662D01*
X119340790Y-94235974D01*
X119349703Y-94040685D01*
X119349743Y-94030300D01*
X119339393Y-93825340D01*
X119305883Y-93649759D01*
X119246700Y-93496975D01*
X119159327Y-93360409D01*
X119041250Y-93233477D01*
X119023281Y-93217159D01*
X118875488Y-93105835D01*
X118713447Y-93024332D01*
X118532150Y-92971121D01*
X118326592Y-92944673D01*
X118091765Y-92943460D01*
X118068218Y-92944554D01*
X117887016Y-92958833D01*
X117716957Y-92984480D01*
X117548962Y-93023967D01*
X117373953Y-93079772D01*
X117182852Y-93154369D01*
X116966580Y-93250233D01*
X116915321Y-93273712D01*
X116816728Y-93318283D01*
X116689159Y-93375511D01*
X116537890Y-93443046D01*
X116368196Y-93518537D01*
X116185351Y-93599636D01*
X115994633Y-93683993D01*
X115801314Y-93769257D01*
X115715367Y-93807098D01*
X115519969Y-93892974D01*
X115358064Y-93963733D01*
X115226339Y-94020646D01*
X115121482Y-94064987D01*
X115040177Y-94098029D01*
X114979112Y-94121043D01*
X114934973Y-94135304D01*
X114904446Y-94142082D01*
X114884218Y-94142652D01*
X114870975Y-94138285D01*
X114861403Y-94130255D01*
X114857136Y-94125659D01*
X114824653Y-94090072D01*
X114772177Y-94032128D01*
X114705973Y-93958756D01*
X114632308Y-93876886D01*
X114619370Y-93862541D01*
X114403144Y-93637346D01*
X114177034Y-93427318D01*
X113945951Y-93236060D01*
X113714805Y-93067176D01*
X113488508Y-92924267D01*
X113271972Y-92810938D01*
X113070107Y-92730792D01*
X112994020Y-92709415D01*
X112892415Y-92686191D01*
X112785939Y-92665823D01*
X112689578Y-92651157D01*
X112618317Y-92645036D01*
X112615148Y-92632226D01*
X112631373Y-92594018D01*
X112664519Y-92539357D01*
X112693873Y-92492129D01*
X112732736Y-92417950D01*
X112756759Y-92357035D01*
X112761033Y-92321246D01*
X112764958Y-92244264D01*
X112768400Y-92127437D01*
X112771349Y-91971690D01*
X112773792Y-91777948D01*
X112775718Y-91547136D01*
X112777115Y-91280180D01*
X112777520Y-91137351D01*
X114091108Y-91137351D01*
X114091124Y-91268340D01*
X114091324Y-91581884D01*
X114091779Y-91856758D01*
X114092519Y-92095135D01*
X114093575Y-92299186D01*
X114094980Y-92471082D01*
X114096762Y-92612993D01*
X114098955Y-92727092D01*
X114101589Y-92815549D01*
X114104694Y-92880536D01*
X114108303Y-92924224D01*
X114112446Y-92948784D01*
X114117154Y-92956388D01*
X114136965Y-92950668D01*
X114191269Y-92931808D01*
X114274070Y-92901812D01*
X114379852Y-92862775D01*
X114503093Y-92816792D01*
X114638277Y-92765959D01*
X114779885Y-92712370D01*
X114922397Y-92658122D01*
X115060296Y-92605309D01*
X115188063Y-92556027D01*
X115300178Y-92512371D01*
X115391125Y-92476437D01*
X115455383Y-92450319D01*
X115487435Y-92436114D01*
X115494519Y-92431631D01*
X115500849Y-92424433D01*
X115506348Y-92411990D01*
X115511076Y-92391701D01*
X115515090Y-92360964D01*
X115518450Y-92317175D01*
X115521212Y-92257733D01*
X115523436Y-92180037D01*
X115525180Y-92081483D01*
X115526502Y-91959471D01*
X115527461Y-91811397D01*
X115528114Y-91634660D01*
X115528521Y-91426658D01*
X115528739Y-91184789D01*
X115528828Y-90906450D01*
X115528844Y-90589040D01*
X115528840Y-90460198D01*
X115528776Y-90158027D01*
X115528595Y-89893991D01*
X115528244Y-89665545D01*
X115527672Y-89470144D01*
X115526826Y-89305242D01*
X115525657Y-89168294D01*
X115524111Y-89056756D01*
X115522138Y-88968081D01*
X115519685Y-88899726D01*
X115516701Y-88849144D01*
X115513134Y-88813791D01*
X115508933Y-88791121D01*
X115504046Y-88778589D01*
X115498421Y-88773650D01*
X115492007Y-88773760D01*
X115470968Y-88781043D01*
X115414240Y-88802215D01*
X115327417Y-88835290D01*
X115215197Y-88878461D01*
X115082278Y-88929919D01*
X114933359Y-88987855D01*
X114773139Y-89050461D01*
X114091108Y-89317528D01*
X114091108Y-91137351D01*
X112777520Y-91137351D01*
X112777972Y-90978004D01*
X112778277Y-90641533D01*
X112778393Y-89003086D01*
X112643473Y-88915183D01*
X112527772Y-88831449D01*
X112404602Y-88711659D01*
X112317738Y-88580371D01*
X112264153Y-88432683D01*
X112240816Y-88263696D01*
X112239716Y-88240355D01*
X112238183Y-88150258D01*
X112243184Y-88098152D01*
X112254925Y-88081374D01*
X112269582Y-88091671D01*
X112278654Y-88128257D01*
X112290888Y-88185580D01*
X112328977Y-88260788D01*
X112383353Y-88331148D01*
X112444186Y-88381612D01*
X112486931Y-88403560D01*
X112533134Y-88418511D01*
X112585147Y-88424138D01*
X112647631Y-88419476D01*
X112725247Y-88403554D01*
X112822656Y-88375404D01*
X112944519Y-88334058D01*
X113095497Y-88278548D01*
X113280252Y-88207905D01*
X113303820Y-88198788D01*
X113444874Y-88143878D01*
X113572402Y-88093658D01*
X113681326Y-88050170D01*
X113766567Y-88015458D01*
X113823047Y-87991562D01*
X113845688Y-87980525D01*
X113844242Y-87977111D01*
X113817290Y-87954885D01*
X113760567Y-87915053D01*
X113678252Y-87860362D01*
X113574525Y-87793561D01*
X113453568Y-87717399D01*
X113319560Y-87634624D01*
X112778393Y-87303381D01*
X112778393Y-87233852D01*
X114094728Y-87233852D01*
X114095256Y-87409474D01*
X114096355Y-87553321D01*
X114098061Y-87667880D01*
X114100411Y-87755637D01*
X114103444Y-87819078D01*
X114107196Y-87860688D01*
X114111705Y-87882955D01*
X114117007Y-87888363D01*
X114262233Y-87832146D01*
X114386130Y-87782699D01*
X114481383Y-87742340D01*
X114553484Y-87708481D01*
X114607922Y-87678530D01*
X114650188Y-87649896D01*
X114685770Y-87619991D01*
X114772779Y-87539788D01*
X114872189Y-87701188D01*
X114916197Y-87770400D01*
X115021938Y-87924834D01*
X115140367Y-88085443D01*
X115260738Y-88237900D01*
X115372304Y-88367880D01*
X115392519Y-88389821D01*
X115446260Y-88445129D01*
X115487900Y-88483651D01*
X115509756Y-88498109D01*
X115511868Y-88488801D01*
X115514834Y-88441409D01*
X115517569Y-88355667D01*
X115520054Y-88233562D01*
X115522271Y-88077083D01*
X115524199Y-87888216D01*
X115525820Y-87668949D01*
X115527114Y-87421270D01*
X115528062Y-87147165D01*
X115528645Y-86848624D01*
X115528844Y-86527632D01*
X115528844Y-84557155D01*
X115484563Y-84571210D01*
X115465311Y-84578039D01*
X115409382Y-84598753D01*
X115323073Y-84631132D01*
X115211229Y-84673347D01*
X115078690Y-84723570D01*
X114930301Y-84779972D01*
X114770904Y-84840723D01*
X114101527Y-85096181D01*
X114096170Y-86497298D01*
X114095233Y-86777342D01*
X114094733Y-87023970D01*
X114094728Y-87233852D01*
X112778393Y-87233852D01*
X112778393Y-86051385D01*
X112778393Y-84799388D01*
X112575235Y-84702943D01*
X112534971Y-84683348D01*
X112333589Y-84568325D01*
X112165903Y-84441727D01*
X112033497Y-84305436D01*
X111937957Y-84161337D01*
X111880865Y-84011311D01*
X111863807Y-83857244D01*
X111866039Y-83757748D01*
X111885274Y-83843290D01*
X111912186Y-83913965D01*
X111970707Y-84003415D01*
X112046917Y-84083886D01*
X112129483Y-84141535D01*
X112162363Y-84156770D01*
X112296824Y-84198360D01*
X112450116Y-84219893D01*
X112607273Y-84218945D01*
X112618600Y-84217883D01*
X112659234Y-84212254D01*
X112706208Y-84202533D01*
X112763128Y-84187481D01*
X112833598Y-84165860D01*
X112921224Y-84136431D01*
X113029611Y-84097956D01*
X113162365Y-84049195D01*
X113323090Y-83988912D01*
X113515392Y-83915866D01*
X113742876Y-83828820D01*
X113787007Y-83811888D01*
X113977978Y-83738480D01*
X114157028Y-83669439D01*
X114320299Y-83606268D01*
X114463933Y-83550467D01*
X114584071Y-83503538D01*
X114676857Y-83466984D01*
X114738431Y-83442305D01*
X114764937Y-83431003D01*
X114781695Y-83420441D01*
X114828931Y-83384605D01*
X114882887Y-83338551D01*
X114962529Y-83266599D01*
X114988091Y-83345480D01*
X115021363Y-83432013D01*
X115078387Y-83552397D01*
X115147859Y-83679540D01*
X115222538Y-83799422D01*
X115222784Y-83799788D01*
X115261756Y-83851812D01*
X115318549Y-83920112D01*
X115387535Y-83998707D01*
X115463084Y-84081617D01*
X115539568Y-84162863D01*
X115611358Y-84236464D01*
X115672826Y-84296439D01*
X115718342Y-84336810D01*
X115742277Y-84351596D01*
X115749996Y-84346973D01*
X115784807Y-84318442D01*
X115843198Y-84267222D01*
X115921015Y-84197196D01*
X116014105Y-84112249D01*
X116118312Y-84016262D01*
X116229484Y-83913121D01*
X116343465Y-83806707D01*
X116456103Y-83700905D01*
X116563241Y-83599597D01*
X116660727Y-83506668D01*
X116744406Y-83426000D01*
X116810124Y-83361477D01*
X116853727Y-83316982D01*
X116871060Y-83296398D01*
X116877313Y-83284520D01*
X116900186Y-83268085D01*
X116917181Y-83277171D01*
X116962723Y-83308058D01*
X117030607Y-83356899D01*
X117115160Y-83419603D01*
X117210714Y-83492080D01*
X117503641Y-83724937D01*
X117823871Y-84000189D01*
X118123327Y-84280259D01*
X118399804Y-84562525D01*
X118651096Y-84844368D01*
X118874998Y-85123167D01*
X119069304Y-85396302D01*
X119231808Y-85661151D01*
X119360305Y-85915096D01*
X119452589Y-86155515D01*
X119465998Y-86199403D01*
X119508569Y-86360083D01*
X119541800Y-86519815D01*
X119563356Y-86666138D01*
X119570900Y-86786588D01*
X119570535Y-86807598D01*
X119560238Y-86925507D01*
X119538121Y-87057196D01*
X119507334Y-87188802D01*
X119471026Y-87306466D01*
X119432349Y-87396324D01*
X119378625Y-87484073D01*
X119253776Y-87632008D01*
X119105723Y-87748677D01*
X118939196Y-87831999D01*
X118758925Y-87879893D01*
X118569639Y-87890277D01*
X118376068Y-87861072D01*
X118230183Y-87813654D01*
X118061294Y-87734545D01*
X117905553Y-87636336D01*
X117772466Y-87525151D01*
X117671541Y-87407115D01*
X117664517Y-87395947D01*
X117666383Y-87389774D01*
X117692609Y-87411296D01*
X117740430Y-87458453D01*
X117887268Y-87591817D01*
X118063551Y-87708259D01*
X118251886Y-87787365D01*
X118456518Y-87831347D01*
X118468758Y-87832826D01*
X118659030Y-87836881D01*
X118839370Y-87806261D01*
X119004713Y-87743455D01*
X119149994Y-87650957D01*
X119270148Y-87531257D01*
X119360110Y-87386846D01*
X119383617Y-87334660D01*
X119428818Y-87212465D01*
X119457419Y-87089823D01*
X119472006Y-86953309D01*
X119475165Y-86789496D01*
X119475032Y-86776292D01*
X119472403Y-86669770D01*
X119465586Y-86583831D01*
X119452152Y-86503506D01*
X119429671Y-86413828D01*
X119395717Y-86299832D01*
X119350948Y-86167154D01*
X119255893Y-85940595D01*
X119136407Y-85714759D01*
X118989922Y-85485773D01*
X118813871Y-85249761D01*
X118605686Y-85002851D01*
X118362800Y-84741167D01*
X118252875Y-84628358D01*
X118155394Y-84534493D01*
X118072142Y-84467404D01*
X117997416Y-84427167D01*
X117925509Y-84413860D01*
X117850717Y-84427558D01*
X117767335Y-84468337D01*
X117669657Y-84536275D01*
X117643839Y-84557155D01*
X117551978Y-84631446D01*
G37*
%TD*%
D19*
%TO.C,H6*%
X84764000Y-94984000D03*
%TD*%
%TO.C,H5*%
X126130000Y-136350000D03*
%TD*%
D20*
%TO.C,H7*%
X127985010Y-51120990D03*
X128644020Y-49530000D03*
X128644020Y-52711980D03*
X130235010Y-48870990D03*
D21*
X130235010Y-51120990D03*
D20*
X130235010Y-53370990D03*
X131826000Y-49530000D03*
X131826000Y-52711980D03*
X132485010Y-51120990D03*
%TD*%
%TO.C,H9*%
X128052000Y-143728000D03*
X128711010Y-142137010D03*
X128711010Y-145318990D03*
X130302000Y-141478000D03*
D21*
X130302000Y-143728000D03*
D20*
X130302000Y-145978000D03*
X131892990Y-142137010D03*
X131892990Y-145318990D03*
X132552000Y-143728000D03*
%TD*%
%TO.C,H10*%
X78455010Y-143830990D03*
X79114020Y-142240000D03*
X79114020Y-145421980D03*
X80705010Y-141580990D03*
D21*
X80705010Y-143830990D03*
D20*
X80705010Y-146080990D03*
X82296000Y-142240000D03*
X82296000Y-145421980D03*
X82955010Y-143830990D03*
%TD*%
D22*
%TO.C,U9*%
X98201691Y-68847200D03*
X99151691Y-69422200D03*
X97251691Y-69422200D03*
X98201691Y-69997200D03*
%TD*%
D20*
%TO.C,H8*%
X78558000Y-51054000D03*
X79217010Y-49463010D03*
X79217010Y-52644990D03*
X80808000Y-48804000D03*
D21*
X80808000Y-51054000D03*
D20*
X80808000Y-53304000D03*
X82398990Y-49463010D03*
X82398990Y-52644990D03*
X83058000Y-51054000D03*
%TD*%
D23*
%TO.C,J4*%
X94701000Y-145782001D03*
D24*
X89621000Y-143622000D03*
X92161000Y-143622000D03*
X94701000Y-143622000D03*
X97241000Y-143622000D03*
%TD*%
D25*
%TO.C,J9*%
X85555000Y-50280000D03*
X88855000Y-52820000D03*
X85555000Y-55360000D03*
X88855000Y-57900000D03*
%TD*%
D26*
%TO.C,FID7*%
X132260000Y-139060000D03*
%TD*%
D27*
%TO.C,J7*%
X83000000Y-76540000D03*
D28*
X85540000Y-76540000D03*
%TD*%
D29*
%TO.C,J8*%
X127443000Y-89566000D03*
X127443000Y-95346000D03*
D30*
X126368000Y-89256000D03*
X126368000Y-90056000D03*
D31*
X126368000Y-91206000D03*
X126368000Y-92206000D03*
X126368000Y-92706000D03*
X126368000Y-93706000D03*
D30*
X126368000Y-94856000D03*
X126368000Y-95656000D03*
X126368000Y-95656000D03*
X126368000Y-94856000D03*
D31*
X126368000Y-94206000D03*
X126368000Y-93206000D03*
X126368000Y-91706000D03*
X126368000Y-90706000D03*
D30*
X126368000Y-90056000D03*
X126368000Y-89256000D03*
D32*
X131123000Y-88136000D03*
D33*
X126943000Y-88136000D03*
D32*
X131123000Y-96776000D03*
D33*
X126943000Y-96776000D03*
%TD*%
D34*
%TO.C,U12*%
X125690000Y-81360000D03*
X124420000Y-81360000D03*
X123150000Y-81360000D03*
X121880000Y-81360000D03*
X120610000Y-81360000D03*
X119340000Y-81360000D03*
X118070000Y-81360000D03*
X116800000Y-81360000D03*
X115530000Y-81360000D03*
X114260000Y-81360000D03*
X112990000Y-81360000D03*
X111720000Y-81360000D03*
X110450000Y-81360000D03*
X109180000Y-81360000D03*
D35*
X107930000Y-79595000D03*
X107930000Y-78325000D03*
X107930000Y-77055000D03*
X107930000Y-75785000D03*
X107930000Y-74515000D03*
X107930000Y-73245000D03*
X107930000Y-71975000D03*
X107930000Y-70705000D03*
X107930000Y-69435000D03*
X107930000Y-68165000D03*
X107930000Y-66895000D03*
X107930000Y-65625000D03*
D34*
X109180000Y-63860000D03*
X110450000Y-63860000D03*
X111720000Y-63860000D03*
X112990000Y-63860000D03*
X114260000Y-63860000D03*
X115530000Y-63860000D03*
X116800000Y-63860000D03*
X118070000Y-63860000D03*
X119340000Y-63860000D03*
X120610000Y-63860000D03*
X121880000Y-63860000D03*
X123150000Y-63860000D03*
X124420000Y-63860000D03*
X125690000Y-63860000D03*
D36*
X116570000Y-75510000D03*
X117970000Y-75510000D03*
X119370000Y-75510000D03*
X116570000Y-74110000D03*
X117970000Y-74110000D03*
X119370000Y-74110000D03*
X116570000Y-72710000D03*
X117970000Y-72710000D03*
X119370000Y-72710000D03*
%TD*%
D26*
%TO.C,FID8*%
X78850000Y-139070000D03*
%TD*%
D37*
%TO.C,U14*%
X108528000Y-112805000D03*
X108528000Y-113307000D03*
X108528000Y-113809000D03*
X108528000Y-114311000D03*
X108528000Y-114813000D03*
X108528000Y-115315000D03*
X108528000Y-115817000D03*
X108528000Y-116319000D03*
X108528000Y-116821000D03*
X108528000Y-117323000D03*
X108528000Y-117825000D03*
X108528000Y-118327000D03*
X108528000Y-118829000D03*
X108528000Y-119331000D03*
X102696000Y-119318000D03*
X102696000Y-118818000D03*
X102696000Y-118318000D03*
X102696000Y-117818000D03*
X102696000Y-117318000D03*
X102696000Y-116821000D03*
X102696000Y-116318000D03*
X102696000Y-115817000D03*
X102696000Y-115315000D03*
X102696000Y-114813000D03*
X102696000Y-114311000D03*
X102696000Y-113818000D03*
X102696000Y-113307000D03*
X102696000Y-112818000D03*
D38*
X105612000Y-113600000D03*
D39*
X105612000Y-117176000D03*
%TD*%
D40*
%TO.C,C28*%
X103490000Y-138720000D03*
X103490000Y-144120000D03*
%TD*%
D41*
%TO.C,J1*%
X82750000Y-67350000D03*
D42*
X87250000Y-67350000D03*
D43*
X82750000Y-72850000D03*
X88900000Y-72850000D03*
X82750000Y-61850000D03*
X88900000Y-61850000D03*
%TD*%
D44*
%TO.C,SW1*%
X132345000Y-104448000D03*
X128027000Y-104448000D03*
%TD*%
D26*
%TO.C,FID5*%
X125270000Y-50310000D03*
%TD*%
D45*
%TO.C,J2*%
X80470000Y-130360000D03*
D46*
X80470000Y-132860000D03*
%TD*%
D44*
%TO.C,SW2*%
X132241000Y-113155000D03*
X127923000Y-113155000D03*
%TD*%
D26*
%TO.C,FID6*%
X78750000Y-55900000D03*
%TD*%
%LPD*%
M02*
